<svg width="224" height="174" viewBox="0 0 224 174" fill="none" xmlns="http://www.w3.org/2000/svg">
<path d="M5.33594 146.367H2.09375V145.547H5.33594C6.01302 145.547 6.5625 145.438 6.98438 145.219C7.41146 144.995 7.72135 144.693 7.91406 144.312C8.11198 143.932 8.21094 143.505 8.21094 143.031C8.21094 142.568 8.11198 142.141 7.91406 141.75C7.72135 141.359 7.41146 141.047 6.98438 140.812C6.5625 140.573 6.01302 140.453 5.33594 140.453H2.42969V151H1.46875V139.625H5.33594C6.16927 139.625 6.86979 139.768 7.4375 140.055C8.01042 140.341 8.44271 140.74 8.73438 141.25C9.02604 141.76 9.17188 142.349 9.17188 143.016C9.17188 143.714 9.02604 144.315 8.73438 144.82C8.44271 145.32 8.01302 145.703 7.44531 145.969C6.8776 146.234 6.17448 146.367 5.33594 146.367ZM12.0391 143.945V151H11.1094V142.547H12.0156L12.0391 143.945ZM15.0312 142.484L15.0078 143.344C14.9036 143.328 14.8021 143.315 14.7031 143.305C14.6042 143.294 14.4974 143.289 14.3828 143.289C13.9766 143.289 13.6198 143.365 13.3125 143.516C13.0104 143.661 12.7552 143.867 12.5469 144.133C12.3385 144.393 12.1797 144.701 12.0703 145.055C11.9609 145.404 11.8984 145.779 11.8828 146.18L11.5391 146.312C11.5391 145.76 11.5964 145.247 11.7109 144.773C11.8255 144.299 12 143.885 12.2344 143.531C12.474 143.172 12.7734 142.893 13.1328 142.695C13.4974 142.492 13.9245 142.391 14.4141 142.391C14.5339 142.391 14.651 142.401 14.7656 142.422C14.8854 142.438 14.974 142.458 15.0312 142.484ZM15.8281 146.906V146.648C15.8281 146.034 15.9167 145.466 16.0938 144.945C16.2708 144.424 16.5234 143.974 16.8516 143.594C17.1849 143.214 17.5833 142.919 18.0469 142.711C18.5104 142.497 19.026 142.391 19.5938 142.391C20.1667 142.391 20.6849 142.497 21.1484 142.711C21.612 142.919 22.0104 143.214 22.3438 143.594C22.6771 143.974 22.9323 144.424 23.1094 144.945C23.2865 145.466 23.375 146.034 23.375 146.648V146.906C23.375 147.521 23.2865 148.089 23.1094 148.609C22.9323 149.125 22.6771 149.573 22.3438 149.953C22.0156 150.333 21.6198 150.63 21.1562 150.844C20.6927 151.052 20.1771 151.156 19.6094 151.156C19.0365 151.156 18.5182 151.052 18.0547 150.844C17.5911 150.63 17.1927 150.333 16.8594 149.953C16.526 149.573 16.2708 149.125 16.0938 148.609C15.9167 148.089 15.8281 147.521 15.8281 146.906ZM16.7578 146.648V146.906C16.7578 147.37 16.8203 147.81 16.9453 148.227C17.0703 148.638 17.2526 149.005 17.4922 149.328C17.7318 149.646 18.0286 149.896 18.3828 150.078C18.737 150.26 19.1458 150.352 19.6094 150.352C20.0677 150.352 20.4714 150.26 20.8203 150.078C21.1745 149.896 21.4714 149.646 21.7109 149.328C21.9505 149.005 22.1302 148.638 22.25 148.227C22.375 147.81 22.4375 147.37 22.4375 146.906V146.648C22.4375 146.19 22.375 145.755 22.25 145.344C22.1302 144.932 21.9479 144.565 21.7031 144.242C21.4635 143.919 21.1667 143.664 20.8125 143.477C20.4583 143.289 20.0521 143.195 19.5938 143.195C19.1354 143.195 18.7292 143.289 18.375 143.477C18.026 143.664 17.7292 143.919 17.4844 144.242C17.2448 144.565 17.0625 144.932 16.9375 145.344C16.8177 145.755 16.7578 146.19 16.7578 146.648ZM27.6797 150.102L30.3906 142.547H31.3516L28.1875 151H27.5078L27.6797 150.102ZM25.2266 142.547L27.9688 150.125L28.1172 151H27.4297L24.2578 142.547H25.2266ZM33.9297 142.547V151H33V142.547H33.9297ZM32.8359 140.102C32.8359 139.924 32.8906 139.776 33 139.656C33.1146 139.531 33.2708 139.469 33.4688 139.469C33.6667 139.469 33.8229 139.531 33.9375 139.656C34.0573 139.776 34.1172 139.924 34.1172 140.102C34.1172 140.273 34.0573 140.422 33.9375 140.547C33.8229 140.667 33.6667 140.727 33.4688 140.727C33.2708 140.727 33.1146 140.667 33 140.547C32.8906 140.422 32.8359 140.273 32.8359 140.102ZM41.9766 149.359V139H42.9141V151H42.0391L41.9766 149.359ZM36.1094 146.859V146.695C36.1094 146.039 36.1849 145.448 36.3359 144.922C36.487 144.391 36.7031 143.938 36.9844 143.562C37.2708 143.182 37.6146 142.893 38.0156 142.695C38.4167 142.492 38.8698 142.391 39.375 142.391C39.8698 142.391 40.3073 142.471 40.6875 142.633C41.0677 142.794 41.3932 143.026 41.6641 143.328C41.9401 143.63 42.1615 143.99 42.3281 144.406C42.5 144.823 42.625 145.286 42.7031 145.797V147.883C42.6406 148.362 42.526 148.802 42.3594 149.203C42.1927 149.599 41.9714 149.945 41.6953 150.242C41.4193 150.534 41.0859 150.76 40.6953 150.922C40.3099 151.078 39.8646 151.156 39.3594 151.156C38.8594 151.156 38.4089 151.052 38.0078 150.844C37.6068 150.635 37.2656 150.341 36.9844 149.961C36.7031 149.576 36.487 149.12 36.3359 148.594C36.1849 148.068 36.1094 147.49 36.1094 146.859ZM37.0469 146.695V146.859C37.0469 147.354 37.0964 147.812 37.1953 148.234C37.2943 148.656 37.4453 149.023 37.6484 149.336C37.8516 149.648 38.1094 149.893 38.4219 150.07C38.7344 150.247 39.1042 150.336 39.5312 150.336C40.0677 150.336 40.5182 150.234 40.8828 150.031C41.2474 149.823 41.5391 149.549 41.7578 149.211C41.9766 148.867 42.1354 148.492 42.2344 148.086V145.656C42.1719 145.38 42.0807 145.099 41.9609 144.812C41.8411 144.526 41.6771 144.263 41.4688 144.023C41.2656 143.779 41.0052 143.583 40.6875 143.438C40.375 143.286 39.9948 143.211 39.5469 143.211C39.1146 143.211 38.7422 143.299 38.4297 143.477C38.1172 143.654 37.8568 143.901 37.6484 144.219C37.4453 144.531 37.2943 144.898 37.1953 145.32C37.0964 145.742 37.0469 146.201 37.0469 146.695ZM48.6406 151.156C48.0885 151.156 47.5807 151.055 47.1172 150.852C46.6589 150.648 46.2578 150.362 45.9141 149.992C45.5755 149.622 45.3125 149.185 45.125 148.68C44.9427 148.169 44.8516 147.612 44.8516 147.008V146.672C44.8516 146.021 44.9479 145.432 45.1406 144.906C45.3333 144.38 45.599 143.93 45.9375 143.555C46.276 143.18 46.6615 142.893 47.0938 142.695C47.5312 142.492 47.9896 142.391 48.4688 142.391C49.0052 142.391 49.4818 142.487 49.8984 142.68C50.3151 142.867 50.6641 143.135 50.9453 143.484C51.2318 143.828 51.4479 144.237 51.5938 144.711C51.7396 145.18 51.8125 145.698 51.8125 146.266V146.836H45.4141V146.039H50.8828V145.93C50.8724 145.456 50.776 145.013 50.5938 144.602C50.4167 144.185 50.151 143.846 49.7969 143.586C49.4427 143.326 49 143.195 48.4688 143.195C48.0729 143.195 47.7083 143.279 47.375 143.445C47.0469 143.612 46.763 143.852 46.5234 144.164C46.2891 144.471 46.1068 144.839 45.9766 145.266C45.8516 145.688 45.7891 146.156 45.7891 146.672V147.008C45.7891 147.477 45.8568 147.914 45.9922 148.32C46.1328 148.721 46.3307 149.076 46.5859 149.383C46.8464 149.69 47.1536 149.93 47.5078 150.102C47.862 150.273 48.2526 150.359 48.6797 150.359C49.1797 150.359 49.6224 150.268 50.0078 150.086C50.3932 149.898 50.7396 149.604 51.0469 149.203L51.6328 149.656C51.4505 149.927 51.2214 150.177 50.9453 150.406C50.6745 150.635 50.349 150.818 49.9688 150.953C49.5885 151.089 49.1458 151.156 48.6406 151.156ZM60.7578 142.547V143.312H56.5234V142.547H60.7578ZM58.0781 140.375H59.0078V148.945C59.0078 149.336 59.0599 149.63 59.1641 149.828C59.2682 150.026 59.4036 150.159 59.5703 150.227C59.737 150.294 59.9167 150.328 60.1094 150.328C60.25 150.328 60.3854 150.32 60.5156 150.305C60.6458 150.284 60.763 150.263 60.8672 150.242L60.9062 151.031C60.7917 151.068 60.6432 151.096 60.4609 151.117C60.2786 151.143 60.0964 151.156 59.9141 151.156C59.5547 151.156 59.237 151.091 58.9609 150.961C58.6849 150.826 58.4688 150.596 58.3125 150.273C58.1562 149.945 58.0781 149.5 58.0781 148.938V140.375ZM63.6484 139V151H62.7188V139H63.6484ZM63.4375 146.25L63.0234 146.016C63.0547 145.516 63.1562 145.047 63.3281 144.609C63.5 144.172 63.7318 143.786 64.0234 143.453C64.3203 143.12 64.6667 142.859 65.0625 142.672C65.4635 142.484 65.9062 142.391 66.3906 142.391C66.8125 142.391 67.1901 142.448 67.5234 142.562C67.8568 142.677 68.1406 142.859 68.375 143.109C68.6094 143.359 68.7865 143.68 68.9062 144.07C69.0312 144.461 69.0938 144.938 69.0938 145.5V151H68.1562V145.492C68.1562 144.909 68.0755 144.453 67.9141 144.125C67.7526 143.792 67.5234 143.555 67.2266 143.414C66.9297 143.273 66.5781 143.203 66.1719 143.203C65.724 143.203 65.3307 143.302 64.9922 143.5C64.6589 143.693 64.3776 143.945 64.1484 144.258C63.9245 144.565 63.7526 144.896 63.6328 145.25C63.513 145.599 63.4479 145.932 63.4375 146.25ZM74.7656 151.156C74.2135 151.156 73.7057 151.055 73.2422 150.852C72.7839 150.648 72.3828 150.362 72.0391 149.992C71.7005 149.622 71.4375 149.185 71.25 148.68C71.0677 148.169 70.9766 147.612 70.9766 147.008V146.672C70.9766 146.021 71.0729 145.432 71.2656 144.906C71.4583 144.38 71.724 143.93 72.0625 143.555C72.401 143.18 72.7865 142.893 73.2188 142.695C73.6562 142.492 74.1146 142.391 74.5938 142.391C75.1302 142.391 75.6068 142.487 76.0234 142.68C76.4401 142.867 76.7891 143.135 77.0703 143.484C77.3568 143.828 77.5729 144.237 77.7188 144.711C77.8646 145.18 77.9375 145.698 77.9375 146.266V146.836H71.5391V146.039H77.0078V145.93C76.9974 145.456 76.901 145.013 76.7188 144.602C76.5417 144.185 76.276 143.846 75.9219 143.586C75.5677 143.326 75.125 143.195 74.5938 143.195C74.1979 143.195 73.8333 143.279 73.5 143.445C73.1719 143.612 72.888 143.852 72.6484 144.164C72.4141 144.471 72.2318 144.839 72.1016 145.266C71.9766 145.688 71.9141 146.156 71.9141 146.672V147.008C71.9141 147.477 71.9818 147.914 72.1172 148.32C72.2578 148.721 72.4557 149.076 72.7109 149.383C72.9714 149.69 73.2786 149.93 73.6328 150.102C73.987 150.273 74.3776 150.359 74.8047 150.359C75.3047 150.359 75.7474 150.268 76.1328 150.086C76.5182 149.898 76.8646 149.604 77.1719 149.203L77.7578 149.656C77.5755 149.927 77.3464 150.177 77.0703 150.406C76.7995 150.635 76.474 150.818 76.0938 150.953C75.7135 151.089 75.2708 151.156 74.7656 151.156ZM80.6641 144.297V151H79.7266V142.547H80.625L80.6641 144.297ZM80.4922 146.25L80.0391 146.016C80.0703 145.516 80.1641 145.047 80.3203 144.609C80.4818 144.172 80.7057 143.786 80.9922 143.453C81.2786 143.12 81.6224 142.859 82.0234 142.672C82.4245 142.484 82.8802 142.391 83.3906 142.391C83.8021 142.391 84.1745 142.448 84.5078 142.562C84.8464 142.672 85.1328 142.846 85.3672 143.086C85.6068 143.32 85.7917 143.628 85.9219 144.008C86.0521 144.388 86.1172 144.844 86.1172 145.375V151H85.1875V145.406C85.1875 144.844 85.099 144.404 84.9219 144.086C84.75 143.768 84.5078 143.542 84.1953 143.406C83.888 143.271 83.5312 143.203 83.125 143.203C82.6458 143.203 82.2396 143.302 81.9062 143.5C81.5781 143.693 81.3099 143.945 81.1016 144.258C80.8984 144.565 80.7474 144.896 80.6484 145.25C80.5495 145.599 80.4974 145.932 80.4922 146.25ZM86.1094 145.516L85.4844 145.531C85.5104 145.12 85.6042 144.727 85.7656 144.352C85.9323 143.977 86.1589 143.643 86.4453 143.352C86.7318 143.055 87.0729 142.82 87.4688 142.648C87.8698 142.477 88.3203 142.391 88.8203 142.391C89.2578 142.391 89.6484 142.451 89.9922 142.57C90.3359 142.685 90.625 142.87 90.8594 143.125C91.099 143.375 91.2812 143.695 91.4062 144.086C91.5312 144.477 91.5938 144.945 91.5938 145.492V151H90.6562V145.484C90.6562 144.885 90.5677 144.422 90.3906 144.094C90.2188 143.76 89.9792 143.529 89.6719 143.398C89.3646 143.268 89.0052 143.203 88.5938 143.203C88.1875 143.208 87.8307 143.284 87.5234 143.43C87.2161 143.57 86.9583 143.758 86.75 143.992C86.5469 144.221 86.3906 144.469 86.2812 144.734C86.1771 145 86.1198 145.26 86.1094 145.516ZM100.219 149.023L102.258 142.547H102.914L102.523 144.289L100.391 151H99.7344L100.219 149.023ZM98.1016 142.547L99.8906 149.062L100.273 151H99.5938L97.1406 142.547H98.1016ZM105.453 149.039L107.195 142.547H108.156L105.703 151H105.031L105.453 149.039ZM103.047 142.547L105.055 148.969L105.562 151H104.906L102.727 144.281L102.359 142.547H103.047ZM110.992 142.547V151H110.062V142.547H110.992ZM109.898 140.102C109.898 139.924 109.953 139.776 110.062 139.656C110.177 139.531 110.333 139.469 110.531 139.469C110.729 139.469 110.885 139.531 111 139.656C111.12 139.776 111.18 139.924 111.18 140.102C111.18 140.273 111.12 140.422 111 140.547C110.885 140.667 110.729 140.727 110.531 140.727C110.333 140.727 110.177 140.667 110.062 140.547C109.953 140.422 109.898 140.273 109.898 140.102ZM116.742 142.547V143.312H112.508V142.547H116.742ZM114.062 140.375H114.992V148.945C114.992 149.336 115.044 149.63 115.148 149.828C115.253 150.026 115.388 150.159 115.555 150.227C115.721 150.294 115.901 150.328 116.094 150.328C116.234 150.328 116.37 150.32 116.5 150.305C116.63 150.284 116.747 150.263 116.852 150.242L116.891 151.031C116.776 151.068 116.628 151.096 116.445 151.117C116.263 151.143 116.081 151.156 115.898 151.156C115.539 151.156 115.221 151.091 114.945 150.961C114.669 150.826 114.453 150.596 114.297 150.273C114.141 149.945 114.062 149.5 114.062 148.938V140.375ZM119.633 139V151H118.703V139H119.633ZM119.422 146.25L119.008 146.016C119.039 145.516 119.141 145.047 119.312 144.609C119.484 144.172 119.716 143.786 120.008 143.453C120.305 143.12 120.651 142.859 121.047 142.672C121.448 142.484 121.891 142.391 122.375 142.391C122.797 142.391 123.174 142.448 123.508 142.562C123.841 142.677 124.125 142.859 124.359 143.109C124.594 143.359 124.771 143.68 124.891 144.07C125.016 144.461 125.078 144.938 125.078 145.5V151H124.141V145.492C124.141 144.909 124.06 144.453 123.898 144.125C123.737 143.792 123.508 143.555 123.211 143.414C122.914 143.273 122.562 143.203 122.156 143.203C121.708 143.203 121.315 143.302 120.977 143.5C120.643 143.693 120.362 143.945 120.133 144.258C119.909 144.565 119.737 144.896 119.617 145.25C119.497 145.599 119.432 145.932 119.422 146.25ZM136.453 148.844C136.453 148.615 136.396 148.388 136.281 148.164C136.167 147.94 135.945 147.734 135.617 147.547C135.294 147.359 134.818 147.201 134.188 147.07C133.719 146.966 133.299 146.849 132.93 146.719C132.565 146.589 132.258 146.432 132.008 146.25C131.758 146.068 131.568 145.849 131.438 145.594C131.307 145.339 131.242 145.036 131.242 144.688C131.242 144.375 131.31 144.081 131.445 143.805C131.586 143.523 131.784 143.279 132.039 143.07C132.299 142.857 132.612 142.69 132.977 142.57C133.346 142.451 133.76 142.391 134.219 142.391C134.87 142.391 135.427 142.503 135.891 142.727C136.359 142.945 136.716 143.245 136.961 143.625C137.211 144.005 137.336 144.435 137.336 144.914H136.406C136.406 144.622 136.32 144.346 136.148 144.086C135.982 143.826 135.734 143.612 135.406 143.445C135.083 143.279 134.688 143.195 134.219 143.195C133.734 143.195 133.341 143.268 133.039 143.414C132.737 143.56 132.516 143.745 132.375 143.969C132.24 144.193 132.172 144.424 132.172 144.664C132.172 144.852 132.201 145.023 132.258 145.18C132.32 145.331 132.43 145.471 132.586 145.602C132.747 145.732 132.977 145.854 133.273 145.969C133.57 146.083 133.956 146.195 134.43 146.305C135.112 146.456 135.669 146.641 136.102 146.859C136.539 147.073 136.862 147.339 137.07 147.656C137.279 147.969 137.383 148.349 137.383 148.797C137.383 149.146 137.31 149.466 137.164 149.758C137.018 150.044 136.807 150.292 136.531 150.5C136.26 150.708 135.932 150.87 135.547 150.984C135.167 151.099 134.74 151.156 134.266 151.156C133.552 151.156 132.948 151.039 132.453 150.805C131.964 150.565 131.591 150.253 131.336 149.867C131.086 149.477 130.961 149.062 130.961 148.625H131.891C131.922 149.062 132.06 149.409 132.305 149.664C132.549 149.914 132.849 150.091 133.203 150.195C133.562 150.299 133.917 150.352 134.266 150.352C134.745 150.352 135.146 150.281 135.469 150.141C135.792 150 136.036 149.815 136.203 149.586C136.37 149.357 136.453 149.109 136.453 148.844ZM140.539 139V151H139.609V139H140.539ZM142.578 146.906V146.648C142.578 146.034 142.667 145.466 142.844 144.945C143.021 144.424 143.273 143.974 143.602 143.594C143.935 143.214 144.333 142.919 144.797 142.711C145.26 142.497 145.776 142.391 146.344 142.391C146.917 142.391 147.435 142.497 147.898 142.711C148.362 142.919 148.76 143.214 149.094 143.594C149.427 143.974 149.682 144.424 149.859 144.945C150.036 145.466 150.125 146.034 150.125 146.648V146.906C150.125 147.521 150.036 148.089 149.859 148.609C149.682 149.125 149.427 149.573 149.094 149.953C148.766 150.333 148.37 150.63 147.906 150.844C147.443 151.052 146.927 151.156 146.359 151.156C145.786 151.156 145.268 151.052 144.805 150.844C144.341 150.63 143.943 150.333 143.609 149.953C143.276 149.573 143.021 149.125 142.844 148.609C142.667 148.089 142.578 147.521 142.578 146.906ZM143.508 146.648V146.906C143.508 147.37 143.57 147.81 143.695 148.227C143.82 148.638 144.003 149.005 144.242 149.328C144.482 149.646 144.779 149.896 145.133 150.078C145.487 150.26 145.896 150.352 146.359 150.352C146.818 150.352 147.221 150.26 147.57 150.078C147.924 149.896 148.221 149.646 148.461 149.328C148.701 149.005 148.88 148.638 149 148.227C149.125 147.81 149.188 147.37 149.188 146.906V146.648C149.188 146.19 149.125 145.755 149 145.344C148.88 144.932 148.698 144.565 148.453 144.242C148.214 143.919 147.917 143.664 147.562 143.477C147.208 143.289 146.802 143.195 146.344 143.195C145.885 143.195 145.479 143.289 145.125 143.477C144.776 143.664 144.479 143.919 144.234 144.242C143.995 144.565 143.812 144.932 143.688 145.344C143.568 145.755 143.508 146.19 143.508 146.648ZM154.406 149.023L156.445 142.547H157.102L156.711 144.289L154.578 151H153.922L154.406 149.023ZM152.289 142.547L154.078 149.062L154.461 151H153.781L151.328 142.547H152.289ZM159.641 149.039L161.383 142.547H162.344L159.891 151H159.219L159.641 149.039ZM157.234 142.547L159.242 148.969L159.75 151H159.094L156.914 144.281L156.547 142.547H157.234ZM168.031 139H168.969V149.359L168.906 151H168.031V139ZM174.852 146.695V146.859C174.852 147.49 174.779 148.068 174.633 148.594C174.487 149.12 174.276 149.576 174 149.961C173.724 150.341 173.385 150.635 172.984 150.844C172.589 151.052 172.133 151.156 171.617 151.156C171.112 151.156 170.664 151.078 170.273 150.922C169.883 150.76 169.549 150.534 169.273 150.242C168.997 149.945 168.776 149.599 168.609 149.203C168.443 148.802 168.326 148.362 168.258 147.883V145.797C168.336 145.286 168.461 144.823 168.633 144.406C168.805 143.99 169.026 143.63 169.297 143.328C169.573 143.026 169.901 142.794 170.281 142.633C170.667 142.471 171.107 142.391 171.602 142.391C172.117 142.391 172.576 142.492 172.977 142.695C173.383 142.893 173.724 143.182 174 143.562C174.276 143.938 174.487 144.391 174.633 144.922C174.779 145.448 174.852 146.039 174.852 146.695ZM173.906 146.859V146.695C173.906 146.201 173.859 145.742 173.766 145.32C173.672 144.898 173.523 144.531 173.32 144.219C173.122 143.901 172.867 143.654 172.555 143.477C172.242 143.299 171.867 143.211 171.43 143.211C170.982 143.211 170.599 143.286 170.281 143.438C169.969 143.583 169.708 143.779 169.5 144.023C169.297 144.263 169.135 144.526 169.016 144.812C168.896 145.099 168.807 145.38 168.75 145.656V148.086C168.839 148.477 168.992 148.844 169.211 149.188C169.43 149.531 169.724 149.81 170.094 150.023C170.464 150.232 170.914 150.336 171.445 150.336C171.872 150.336 172.24 150.247 172.547 150.07C172.859 149.893 173.115 149.648 173.312 149.336C173.516 149.023 173.664 148.656 173.758 148.234C173.857 147.812 173.906 147.354 173.906 146.859ZM182.336 149.047V142.547H183.273V151H182.375L182.336 149.047ZM182.508 147.484L182.992 147.469C182.992 148 182.93 148.49 182.805 148.938C182.68 149.385 182.484 149.776 182.219 150.109C181.953 150.443 181.609 150.701 181.188 150.883C180.766 151.065 180.258 151.156 179.664 151.156C179.253 151.156 178.875 151.099 178.531 150.984C178.193 150.865 177.901 150.677 177.656 150.422C177.411 150.167 177.221 149.836 177.086 149.43C176.956 149.023 176.891 148.531 176.891 147.953V142.547H177.82V147.969C177.82 148.422 177.87 148.799 177.969 149.102C178.073 149.404 178.214 149.646 178.391 149.828C178.573 150.01 178.781 150.141 179.016 150.219C179.25 150.297 179.503 150.336 179.773 150.336C180.461 150.336 181.003 150.203 181.398 149.938C181.799 149.672 182.083 149.323 182.25 148.891C182.422 148.453 182.508 147.984 182.508 147.484ZM188.914 142.547V143.312H184.68V142.547H188.914ZM186.234 140.375H187.164V148.945C187.164 149.336 187.216 149.63 187.32 149.828C187.424 150.026 187.56 150.159 187.727 150.227C187.893 150.294 188.073 150.328 188.266 150.328C188.406 150.328 188.542 150.32 188.672 150.305C188.802 150.284 188.919 150.263 189.023 150.242L189.062 151.031C188.948 151.068 188.799 151.096 188.617 151.117C188.435 151.143 188.253 151.156 188.07 151.156C187.711 151.156 187.393 151.091 187.117 150.961C186.841 150.826 186.625 150.596 186.469 150.273C186.312 149.945 186.234 149.5 186.234 148.938V140.375ZM199.844 148.844C199.844 148.615 199.786 148.388 199.672 148.164C199.557 147.94 199.336 147.734 199.008 147.547C198.685 147.359 198.208 147.201 197.578 147.07C197.109 146.966 196.69 146.849 196.32 146.719C195.956 146.589 195.648 146.432 195.398 146.25C195.148 146.068 194.958 145.849 194.828 145.594C194.698 145.339 194.633 145.036 194.633 144.688C194.633 144.375 194.701 144.081 194.836 143.805C194.977 143.523 195.174 143.279 195.43 143.07C195.69 142.857 196.003 142.69 196.367 142.57C196.737 142.451 197.151 142.391 197.609 142.391C198.26 142.391 198.818 142.503 199.281 142.727C199.75 142.945 200.107 143.245 200.352 143.625C200.602 144.005 200.727 144.435 200.727 144.914H199.797C199.797 144.622 199.711 144.346 199.539 144.086C199.372 143.826 199.125 143.612 198.797 143.445C198.474 143.279 198.078 143.195 197.609 143.195C197.125 143.195 196.732 143.268 196.43 143.414C196.128 143.56 195.906 143.745 195.766 143.969C195.63 144.193 195.562 144.424 195.562 144.664C195.562 144.852 195.591 145.023 195.648 145.18C195.711 145.331 195.82 145.471 195.977 145.602C196.138 145.732 196.367 145.854 196.664 145.969C196.961 146.083 197.346 146.195 197.82 146.305C198.503 146.456 199.06 146.641 199.492 146.859C199.93 147.073 200.253 147.339 200.461 147.656C200.669 147.969 200.773 148.349 200.773 148.797C200.773 149.146 200.701 149.466 200.555 149.758C200.409 150.044 200.198 150.292 199.922 150.5C199.651 150.708 199.323 150.87 198.938 150.984C198.557 151.099 198.13 151.156 197.656 151.156C196.943 151.156 196.339 151.039 195.844 150.805C195.354 150.565 194.982 150.253 194.727 149.867C194.477 149.477 194.352 149.062 194.352 148.625H195.281C195.312 149.062 195.451 149.409 195.695 149.664C195.94 149.914 196.24 150.091 196.594 150.195C196.953 150.299 197.307 150.352 197.656 150.352C198.135 150.352 198.536 150.281 198.859 150.141C199.182 150 199.427 149.815 199.594 149.586C199.76 149.357 199.844 149.109 199.844 148.844ZM208.305 149.047V142.547H209.242V151H208.344L208.305 149.047ZM208.477 147.484L208.961 147.469C208.961 148 208.898 148.49 208.773 148.938C208.648 149.385 208.453 149.776 208.188 150.109C207.922 150.443 207.578 150.701 207.156 150.883C206.734 151.065 206.227 151.156 205.633 151.156C205.221 151.156 204.844 151.099 204.5 150.984C204.161 150.865 203.87 150.677 203.625 150.422C203.38 150.167 203.19 149.836 203.055 149.43C202.924 149.023 202.859 148.531 202.859 147.953V142.547H203.789V147.969C203.789 148.422 203.839 148.799 203.938 149.102C204.042 149.404 204.182 149.646 204.359 149.828C204.542 150.01 204.75 150.141 204.984 150.219C205.219 150.297 205.471 150.336 205.742 150.336C206.43 150.336 206.971 150.203 207.367 149.938C207.768 149.672 208.052 149.323 208.219 148.891C208.391 148.453 208.477 147.984 208.477 147.484ZM212.617 143.945V151H211.688V142.547H212.594L212.617 143.945ZM215.609 142.484L215.586 143.344C215.482 143.328 215.38 143.315 215.281 143.305C215.182 143.294 215.076 143.289 214.961 143.289C214.555 143.289 214.198 143.365 213.891 143.516C213.589 143.661 213.333 143.867 213.125 144.133C212.917 144.393 212.758 144.701 212.648 145.055C212.539 145.404 212.477 145.779 212.461 146.18L212.117 146.312C212.117 145.76 212.174 145.247 212.289 144.773C212.404 144.299 212.578 143.885 212.812 143.531C213.052 143.172 213.352 142.893 213.711 142.695C214.076 142.492 214.503 142.391 214.992 142.391C215.112 142.391 215.229 142.401 215.344 142.422C215.464 142.438 215.552 142.458 215.609 142.484ZM220.188 151.156C219.635 151.156 219.128 151.055 218.664 150.852C218.206 150.648 217.805 150.362 217.461 149.992C217.122 149.622 216.859 149.185 216.672 148.68C216.49 148.169 216.398 147.612 216.398 147.008V146.672C216.398 146.021 216.495 145.432 216.688 144.906C216.88 144.38 217.146 143.93 217.484 143.555C217.823 143.18 218.208 142.893 218.641 142.695C219.078 142.492 219.536 142.391 220.016 142.391C220.552 142.391 221.029 142.487 221.445 142.68C221.862 142.867 222.211 143.135 222.492 143.484C222.779 143.828 222.995 144.237 223.141 144.711C223.286 145.18 223.359 145.698 223.359 146.266V146.836H216.961V146.039H222.43V145.93C222.419 145.456 222.323 145.013 222.141 144.602C221.964 144.185 221.698 143.846 221.344 143.586C220.99 143.326 220.547 143.195 220.016 143.195C219.62 143.195 219.255 143.279 218.922 143.445C218.594 143.612 218.31 143.852 218.07 144.164C217.836 144.471 217.654 144.839 217.523 145.266C217.398 145.688 217.336 146.156 217.336 146.672V147.008C217.336 147.477 217.404 147.914 217.539 148.32C217.68 148.721 217.878 149.076 218.133 149.383C218.393 149.69 218.701 149.93 219.055 150.102C219.409 150.273 219.799 150.359 220.227 150.359C220.727 150.359 221.169 150.268 221.555 150.086C221.94 149.898 222.286 149.604 222.594 149.203L223.18 149.656C222.997 149.927 222.768 150.177 222.492 150.406C222.221 150.635 221.896 150.818 221.516 150.953C221.135 151.089 220.693 151.156 220.188 151.156ZM55.4297 161.547H56.2969V169.852C56.2969 170.586 56.1562 171.216 55.875 171.742C55.599 172.268 55.2057 172.672 54.6953 172.953C54.1901 173.234 53.5938 173.375 52.9062 173.375C52.5573 173.375 52.1979 173.32 51.8281 173.211C51.4635 173.107 51.1172 172.945 50.7891 172.727C50.4661 172.513 50.1901 172.247 49.9609 171.93L50.4844 171.359C50.8281 171.776 51.1953 172.081 51.5859 172.273C51.9766 172.471 52.3984 172.57 52.8516 172.57C53.388 172.57 53.8411 172.464 54.2109 172.25C54.5859 172.036 54.8698 171.729 55.0625 171.328C55.2604 170.927 55.3594 170.445 55.3594 169.883V163.406L55.4297 161.547ZM49.4922 165.859V165.695C49.4922 165.039 49.5651 164.448 49.7109 163.922C49.862 163.391 50.0781 162.938 50.3594 162.562C50.6406 162.182 50.9818 161.893 51.3828 161.695C51.7891 161.492 52.2474 161.391 52.7578 161.391C53.2474 161.391 53.6823 161.471 54.0625 161.633C54.4427 161.794 54.7708 162.026 55.0469 162.328C55.3229 162.63 55.5443 162.99 55.7109 163.406C55.8828 163.823 56.0078 164.286 56.0859 164.797V166.883C56.0234 167.362 55.9089 167.802 55.7422 168.203C55.5755 168.599 55.3542 168.945 55.0781 169.242C54.8021 169.534 54.4688 169.76 54.0781 169.922C53.6927 170.078 53.2474 170.156 52.7422 170.156C52.237 170.156 51.7839 170.052 51.3828 169.844C50.9818 169.635 50.6406 169.341 50.3594 168.961C50.0781 168.576 49.862 168.12 49.7109 167.594C49.5651 167.068 49.4922 166.49 49.4922 165.859ZM50.4297 165.695V165.859C50.4297 166.354 50.4792 166.812 50.5781 167.234C50.6771 167.656 50.8281 168.023 51.0312 168.336C51.2344 168.648 51.4922 168.893 51.8047 169.07C52.1172 169.247 52.4844 169.336 52.9062 169.336C53.4427 169.336 53.8932 169.234 54.2578 169.031C54.6224 168.823 54.9115 168.549 55.125 168.211C55.3385 167.867 55.4948 167.492 55.5938 167.086V164.656C55.5365 164.38 55.4479 164.099 55.3281 163.812C55.2135 163.526 55.0521 163.263 54.8438 163.023C54.6406 162.779 54.3802 162.583 54.0625 162.438C53.75 162.286 53.3698 162.211 52.9219 162.211C52.4948 162.211 52.1224 162.299 51.8047 162.477C51.4922 162.654 51.2344 162.901 51.0312 163.219C50.8281 163.531 50.6771 163.898 50.5781 164.32C50.4792 164.742 50.4297 165.201 50.4297 165.695ZM59.6719 162.945V170H58.7422V161.547H59.6484L59.6719 162.945ZM62.6641 161.484L62.6406 162.344C62.5365 162.328 62.4349 162.315 62.3359 162.305C62.237 162.294 62.1302 162.289 62.0156 162.289C61.6094 162.289 61.2526 162.365 60.9453 162.516C60.6432 162.661 60.388 162.867 60.1797 163.133C59.9714 163.393 59.8125 163.701 59.7031 164.055C59.5938 164.404 59.5312 164.779 59.5156 165.18L59.1719 165.312C59.1719 164.76 59.2292 164.247 59.3438 163.773C59.4583 163.299 59.6328 162.885 59.8672 162.531C60.1068 162.172 60.4062 161.893 60.7656 161.695C61.1302 161.492 61.5573 161.391 62.0469 161.391C62.1667 161.391 62.2839 161.401 62.3984 161.422C62.5182 161.438 62.6068 161.458 62.6641 161.484ZM63.4609 165.906V165.648C63.4609 165.034 63.5495 164.466 63.7266 163.945C63.9036 163.424 64.1562 162.974 64.4844 162.594C64.8177 162.214 65.2161 161.919 65.6797 161.711C66.1432 161.497 66.6589 161.391 67.2266 161.391C67.7995 161.391 68.3177 161.497 68.7812 161.711C69.2448 161.919 69.6432 162.214 69.9766 162.594C70.3099 162.974 70.5651 163.424 70.7422 163.945C70.9193 164.466 71.0078 165.034 71.0078 165.648V165.906C71.0078 166.521 70.9193 167.089 70.7422 167.609C70.5651 168.125 70.3099 168.573 69.9766 168.953C69.6484 169.333 69.2526 169.63 68.7891 169.844C68.3255 170.052 67.8099 170.156 67.2422 170.156C66.6693 170.156 66.151 170.052 65.6875 169.844C65.224 169.63 64.8255 169.333 64.4922 168.953C64.1589 168.573 63.9036 168.125 63.7266 167.609C63.5495 167.089 63.4609 166.521 63.4609 165.906ZM64.3906 165.648V165.906C64.3906 166.37 64.4531 166.81 64.5781 167.227C64.7031 167.638 64.8854 168.005 65.125 168.328C65.3646 168.646 65.6615 168.896 66.0156 169.078C66.3698 169.26 66.7786 169.352 67.2422 169.352C67.7005 169.352 68.1042 169.26 68.4531 169.078C68.8073 168.896 69.1042 168.646 69.3438 168.328C69.5833 168.005 69.763 167.638 69.8828 167.227C70.0078 166.81 70.0703 166.37 70.0703 165.906V165.648C70.0703 165.19 70.0078 164.755 69.8828 164.344C69.763 163.932 69.5807 163.565 69.3359 163.242C69.0964 162.919 68.7995 162.664 68.4453 162.477C68.0911 162.289 67.6849 162.195 67.2266 162.195C66.7682 162.195 66.362 162.289 66.0078 162.477C65.6589 162.664 65.362 162.919 65.1172 163.242C64.8776 163.565 64.6953 163.932 64.5703 164.344C64.4505 164.755 64.3906 165.19 64.3906 165.648ZM75.2891 168.023L77.3281 161.547H77.9844L77.5938 163.289L75.4609 170H74.8047L75.2891 168.023ZM73.1719 161.547L74.9609 168.062L75.3438 170H74.6641L72.2109 161.547H73.1719ZM80.5234 168.039L82.2656 161.547H83.2266L80.7734 170H80.1016L80.5234 168.039ZM78.1172 161.547L80.125 167.969L80.6328 170H79.9766L77.7969 163.281L77.4297 161.547H78.1172ZM88.2188 161.547V162.312H83.9844V161.547H88.2188ZM85.5391 159.375H86.4688V167.945C86.4688 168.336 86.5208 168.63 86.625 168.828C86.7292 169.026 86.8646 169.159 87.0312 169.227C87.1979 169.294 87.3776 169.328 87.5703 169.328C87.7109 169.328 87.8464 169.32 87.9766 169.305C88.1068 169.284 88.224 169.263 88.3281 169.242L88.3672 170.031C88.2526 170.068 88.1042 170.096 87.9219 170.117C87.7396 170.143 87.5573 170.156 87.375 170.156C87.0156 170.156 86.6979 170.091 86.4219 169.961C86.1458 169.826 85.9297 169.596 85.7734 169.273C85.6172 168.945 85.5391 168.5 85.5391 167.938V159.375ZM91.1094 158V170H90.1797V158H91.1094ZM90.8984 165.25L90.4844 165.016C90.5156 164.516 90.6172 164.047 90.7891 163.609C90.9609 163.172 91.1927 162.786 91.4844 162.453C91.7812 162.12 92.1276 161.859 92.5234 161.672C92.9245 161.484 93.3672 161.391 93.8516 161.391C94.2734 161.391 94.651 161.448 94.9844 161.562C95.3177 161.677 95.6016 161.859 95.8359 162.109C96.0703 162.359 96.2474 162.68 96.3672 163.07C96.4922 163.461 96.5547 163.938 96.5547 164.5V170H95.6172V164.492C95.6172 163.909 95.5365 163.453 95.375 163.125C95.2135 162.792 94.9844 162.555 94.6875 162.414C94.3906 162.273 94.0391 162.203 93.6328 162.203C93.1849 162.203 92.7917 162.302 92.4531 162.5C92.1198 162.693 91.8385 162.945 91.6094 163.258C91.3854 163.565 91.2135 163.896 91.0938 164.25C90.974 164.599 90.9089 164.932 90.8984 165.25ZM106.062 161.547V162.312H101.828V161.547H106.062ZM103.383 159.375H104.312V167.945C104.312 168.336 104.365 168.63 104.469 168.828C104.573 169.026 104.708 169.159 104.875 169.227C105.042 169.294 105.221 169.328 105.414 169.328C105.555 169.328 105.69 169.32 105.82 169.305C105.951 169.284 106.068 169.263 106.172 169.242L106.211 170.031C106.096 170.068 105.948 170.096 105.766 170.117C105.583 170.143 105.401 170.156 105.219 170.156C104.859 170.156 104.542 170.091 104.266 169.961C103.99 169.826 103.773 169.596 103.617 169.273C103.461 168.945 103.383 168.5 103.383 167.938V159.375ZM107.352 165.906V165.648C107.352 165.034 107.44 164.466 107.617 163.945C107.794 163.424 108.047 162.974 108.375 162.594C108.708 162.214 109.107 161.919 109.57 161.711C110.034 161.497 110.549 161.391 111.117 161.391C111.69 161.391 112.208 161.497 112.672 161.711C113.135 161.919 113.534 162.214 113.867 162.594C114.201 162.974 114.456 163.424 114.633 163.945C114.81 164.466 114.898 165.034 114.898 165.648V165.906C114.898 166.521 114.81 167.089 114.633 167.609C114.456 168.125 114.201 168.573 113.867 168.953C113.539 169.333 113.143 169.63 112.68 169.844C112.216 170.052 111.701 170.156 111.133 170.156C110.56 170.156 110.042 170.052 109.578 169.844C109.115 169.63 108.716 169.333 108.383 168.953C108.049 168.573 107.794 168.125 107.617 167.609C107.44 167.089 107.352 166.521 107.352 165.906ZM108.281 165.648V165.906C108.281 166.37 108.344 166.81 108.469 167.227C108.594 167.638 108.776 168.005 109.016 168.328C109.255 168.646 109.552 168.896 109.906 169.078C110.26 169.26 110.669 169.352 111.133 169.352C111.591 169.352 111.995 169.26 112.344 169.078C112.698 168.896 112.995 168.646 113.234 168.328C113.474 168.005 113.654 167.638 113.773 167.227C113.898 166.81 113.961 166.37 113.961 165.906V165.648C113.961 165.19 113.898 164.755 113.773 164.344C113.654 163.932 113.471 163.565 113.227 163.242C112.987 162.919 112.69 162.664 112.336 162.477C111.982 162.289 111.576 162.195 111.117 162.195C110.659 162.195 110.253 162.289 109.898 162.477C109.549 162.664 109.253 162.919 109.008 163.242C108.768 163.565 108.586 163.932 108.461 164.344C108.341 164.755 108.281 165.19 108.281 165.648ZM123.938 161.547V162.312H119.703V161.547H123.938ZM121.258 159.375H122.188V167.945C122.188 168.336 122.24 168.63 122.344 168.828C122.448 169.026 122.583 169.159 122.75 169.227C122.917 169.294 123.096 169.328 123.289 169.328C123.43 169.328 123.565 169.32 123.695 169.305C123.826 169.284 123.943 169.263 124.047 169.242L124.086 170.031C123.971 170.068 123.823 170.096 123.641 170.117C123.458 170.143 123.276 170.156 123.094 170.156C122.734 170.156 122.417 170.091 122.141 169.961C121.865 169.826 121.648 169.596 121.492 169.273C121.336 168.945 121.258 168.5 121.258 167.938V159.375ZM126.828 158V170H125.898V158H126.828ZM126.617 165.25L126.203 165.016C126.234 164.516 126.336 164.047 126.508 163.609C126.68 163.172 126.911 162.786 127.203 162.453C127.5 162.12 127.846 161.859 128.242 161.672C128.643 161.484 129.086 161.391 129.57 161.391C129.992 161.391 130.37 161.448 130.703 161.562C131.036 161.677 131.32 161.859 131.555 162.109C131.789 162.359 131.966 162.68 132.086 163.07C132.211 163.461 132.273 163.938 132.273 164.5V170H131.336V164.492C131.336 163.909 131.255 163.453 131.094 163.125C130.932 162.792 130.703 162.555 130.406 162.414C130.109 162.273 129.758 162.203 129.352 162.203C128.904 162.203 128.51 162.302 128.172 162.5C127.839 162.693 127.557 162.945 127.328 163.258C127.104 163.565 126.932 163.896 126.812 164.25C126.693 164.599 126.628 164.932 126.617 165.25ZM137.945 170.156C137.393 170.156 136.885 170.055 136.422 169.852C135.964 169.648 135.562 169.362 135.219 168.992C134.88 168.622 134.617 168.185 134.43 167.68C134.247 167.169 134.156 166.612 134.156 166.008V165.672C134.156 165.021 134.253 164.432 134.445 163.906C134.638 163.38 134.904 162.93 135.242 162.555C135.581 162.18 135.966 161.893 136.398 161.695C136.836 161.492 137.294 161.391 137.773 161.391C138.31 161.391 138.786 161.487 139.203 161.68C139.62 161.867 139.969 162.135 140.25 162.484C140.536 162.828 140.753 163.237 140.898 163.711C141.044 164.18 141.117 164.698 141.117 165.266V165.836H134.719V165.039H140.188V164.93C140.177 164.456 140.081 164.013 139.898 163.602C139.721 163.185 139.456 162.846 139.102 162.586C138.747 162.326 138.305 162.195 137.773 162.195C137.378 162.195 137.013 162.279 136.68 162.445C136.352 162.612 136.068 162.852 135.828 163.164C135.594 163.471 135.411 163.839 135.281 164.266C135.156 164.688 135.094 165.156 135.094 165.672V166.008C135.094 166.477 135.161 166.914 135.297 167.32C135.438 167.721 135.635 168.076 135.891 168.383C136.151 168.69 136.458 168.93 136.812 169.102C137.167 169.273 137.557 169.359 137.984 169.359C138.484 169.359 138.927 169.268 139.312 169.086C139.698 168.898 140.044 168.604 140.352 168.203L140.938 168.656C140.755 168.927 140.526 169.177 140.25 169.406C139.979 169.635 139.654 169.818 139.273 169.953C138.893 170.089 138.451 170.156 137.945 170.156ZM150.586 158.625V170H149.633V158.625H150.586ZM154.484 158.625V159.453H145.742V158.625H154.484ZM164.516 163.703V164.922C164.516 165.719 164.411 166.44 164.203 167.086C164 167.727 163.703 168.276 163.312 168.734C162.927 169.193 162.464 169.544 161.922 169.789C161.38 170.034 160.771 170.156 160.094 170.156C159.432 170.156 158.828 170.034 158.281 169.789C157.74 169.544 157.273 169.193 156.883 168.734C156.492 168.276 156.19 167.727 155.977 167.086C155.763 166.44 155.656 165.719 155.656 164.922V163.703C155.656 162.906 155.76 162.188 155.969 161.547C156.182 160.901 156.484 160.349 156.875 159.891C157.266 159.432 157.732 159.081 158.273 158.836C158.815 158.591 159.417 158.469 160.078 158.469C160.755 158.469 161.365 158.591 161.906 158.836C162.448 159.081 162.914 159.432 163.305 159.891C163.695 160.349 163.995 160.901 164.203 161.547C164.411 162.188 164.516 162.906 164.516 163.703ZM163.562 164.922V163.688C163.562 163.016 163.484 162.411 163.328 161.875C163.177 161.339 162.951 160.88 162.648 160.5C162.352 160.12 161.987 159.828 161.555 159.625C161.122 159.422 160.63 159.32 160.078 159.32C159.542 159.32 159.06 159.422 158.633 159.625C158.206 159.828 157.841 160.12 157.539 160.5C157.242 160.88 157.013 161.339 156.852 161.875C156.695 162.411 156.617 163.016 156.617 163.688V164.922C156.617 165.599 156.695 166.208 156.852 166.75C157.013 167.286 157.245 167.747 157.547 168.133C157.849 168.513 158.214 168.805 158.641 169.008C159.073 169.211 159.557 169.312 160.094 169.312C160.651 169.312 161.143 169.211 161.57 169.008C161.997 168.805 162.359 168.513 162.656 168.133C162.953 167.747 163.177 167.286 163.328 166.75C163.484 166.208 163.562 165.599 163.562 164.922ZM170.812 165.367H167.57V164.547H170.812C171.49 164.547 172.039 164.438 172.461 164.219C172.888 163.995 173.198 163.693 173.391 163.312C173.589 162.932 173.688 162.505 173.688 162.031C173.688 161.568 173.589 161.141 173.391 160.75C173.198 160.359 172.888 160.047 172.461 159.812C172.039 159.573 171.49 159.453 170.812 159.453H167.906V170H166.945V158.625H170.812C171.646 158.625 172.346 158.768 172.914 159.055C173.487 159.341 173.919 159.74 174.211 160.25C174.503 160.76 174.648 161.349 174.648 162.016C174.648 162.714 174.503 163.315 174.211 163.82C173.919 164.32 173.49 164.703 172.922 164.969C172.354 165.234 171.651 165.367 170.812 165.367Z" fill="#EFEFEF"/>
<path fill-rule="evenodd" clip-rule="evenodd" d="M112.486 1.01126C144.242 1.01126 169.986 26.7545 169.986 58.5108C169.986 90.2673 144.242 116.011 112.486 116.011C80.7298 116.011 54.9861 90.2673 54.9861 58.5108C54.9861 26.7545 80.7298 1.01126 112.486 1.01126Z" fill="#F9BF3B"/>
<g clip-path="url(#clip0_235903_180)">
<path d="M137 34H87V84H137V34Z" fill="#FFFBDB"/>
<path d="M87.5 83.5V34.5H136.5V83.5H87.5Z" stroke="black" stroke-opacity="0.58"/>
<path d="M125.853 42.7847H118.918V75.1488H125.853V42.7847Z" fill="#1C4E80" stroke="black" stroke-miterlimit="1.5" stroke-linecap="round" stroke-linejoin="round"/>
<path d="M102.764 56.6548H95.8289V75.1486H102.764V56.6548Z" fill="#EA6A47" stroke="black" stroke-miterlimit="1.5" stroke-linecap="round" stroke-linejoin="round"/>
<path d="M114.323 47.408H107.388V75.1488H114.323V47.408Z" fill="white" stroke="black" stroke-miterlimit="1.5" stroke-linecap="round" stroke-linejoin="round"/>
<path fill-rule="evenodd" clip-rule="evenodd" d="M93.4247 42.5997L91.2054 38.1611L88.9861 42.5997H93.4247Z" fill="#202020"/>
<path fill-rule="evenodd" clip-rule="evenodd" d="M128.378 77.553L132.817 79.7722L128.378 81.9915V77.553Z" fill="#202020"/>
<line x1="90.3333" y1="79.6665" x2="128.667" y2="79.6665" stroke="#202020" stroke-width="2"/>
<line x1="91.3333" y1="40.6665" x2="91.3333" y2="79.8332" stroke="#202020" stroke-width="2"/>
</g>
<defs>
<clipPath id="clip0_235903_180">
<rect width="50" height="49.9334" fill="white" transform="translate(87 34)"/>
</clipPath>
</defs>
</svg>
