<svg width="224" height="174" viewBox="0 0 224 174" fill="none" xmlns="http://www.w3.org/2000/svg">
<path d="M28.8281 147.453H29.7891C29.7109 148.219 29.5 148.88 29.1562 149.438C28.8125 149.99 28.3438 150.414 27.75 150.711C27.1562 151.008 26.4401 151.156 25.6016 151.156C24.9557 151.156 24.3698 151.034 23.8438 150.789C23.3229 150.544 22.875 150.198 22.5 149.75C22.125 149.297 21.8359 148.755 21.6328 148.125C21.4297 147.495 21.3281 146.794 21.3281 146.023V144.602C21.3281 143.831 21.4297 143.133 21.6328 142.508C21.8359 141.878 22.1276 141.336 22.5078 140.883C22.888 140.43 23.3438 140.081 23.875 139.836C24.4062 139.591 25.0052 139.469 25.6719 139.469C26.4792 139.469 27.1771 139.617 27.7656 139.914C28.3542 140.206 28.8177 140.628 29.1562 141.18C29.5 141.732 29.7109 142.398 29.7891 143.18H28.8281C28.7552 142.565 28.5938 142.044 28.3438 141.617C28.0938 141.19 27.7474 140.865 27.3047 140.641C26.8672 140.411 26.3229 140.297 25.6719 140.297C25.1406 140.297 24.6667 140.398 24.25 140.602C23.8333 140.805 23.4792 141.096 23.1875 141.477C22.8958 141.852 22.6719 142.302 22.5156 142.828C22.3646 143.354 22.2891 143.94 22.2891 144.586V146.023C22.2891 146.648 22.362 147.224 22.5078 147.75C22.6536 148.276 22.8672 148.732 23.1484 149.117C23.4349 149.503 23.7839 149.802 24.1953 150.016C24.6068 150.229 25.0755 150.336 25.6016 150.336C26.2734 150.336 26.8333 150.229 27.2812 150.016C27.7344 149.797 28.0859 149.474 28.3359 149.047C28.5859 148.62 28.75 148.089 28.8281 147.453ZM32.8438 143.945V151H31.9141V142.547H32.8203L32.8438 143.945ZM35.8359 142.484L35.8125 143.344C35.7083 143.328 35.6068 143.315 35.5078 143.305C35.4089 143.294 35.3021 143.289 35.1875 143.289C34.7812 143.289 34.4245 143.365 34.1172 143.516C33.8151 143.661 33.5599 143.867 33.3516 144.133C33.1432 144.393 32.9844 144.701 32.875 145.055C32.7656 145.404 32.7031 145.779 32.6875 146.18L32.3438 146.312C32.3438 145.76 32.401 145.247 32.5156 144.773C32.6302 144.299 32.8047 143.885 33.0391 143.531C33.2786 143.172 33.5781 142.893 33.9375 142.695C34.3021 142.492 34.7292 142.391 35.2188 142.391C35.3385 142.391 35.4557 142.401 35.5703 142.422C35.6901 142.438 35.7786 142.458 35.8359 142.484ZM40.4141 151.156C39.862 151.156 39.3542 151.055 38.8906 150.852C38.4323 150.648 38.0312 150.362 37.6875 149.992C37.349 149.622 37.0859 149.185 36.8984 148.68C36.7161 148.169 36.625 147.612 36.625 147.008V146.672C36.625 146.021 36.7214 145.432 36.9141 144.906C37.1068 144.38 37.3724 143.93 37.7109 143.555C38.0495 143.18 38.4349 142.893 38.8672 142.695C39.3047 142.492 39.763 142.391 40.2422 142.391C40.7786 142.391 41.2552 142.487 41.6719 142.68C42.0885 142.867 42.4375 143.135 42.7188 143.484C43.0052 143.828 43.2214 144.237 43.3672 144.711C43.513 145.18 43.5859 145.698 43.5859 146.266V146.836H37.1875V146.039H42.6562V145.93C42.6458 145.456 42.5495 145.013 42.3672 144.602C42.1901 144.185 41.9245 143.846 41.5703 143.586C41.2161 143.326 40.7734 143.195 40.2422 143.195C39.8464 143.195 39.4818 143.279 39.1484 143.445C38.8203 143.612 38.5365 143.852 38.2969 144.164C38.0625 144.471 37.8802 144.839 37.75 145.266C37.625 145.688 37.5625 146.156 37.5625 146.672V147.008C37.5625 147.477 37.6302 147.914 37.7656 148.32C37.9062 148.721 38.1042 149.076 38.3594 149.383C38.6198 149.69 38.9271 149.93 39.2812 150.102C39.6354 150.273 40.026 150.359 40.4531 150.359C40.9531 150.359 41.3958 150.268 41.7812 150.086C42.1667 149.898 42.513 149.604 42.8203 149.203L43.4062 149.656C43.224 149.927 42.9948 150.177 42.7188 150.406C42.4479 150.635 42.1224 150.818 41.7422 150.953C41.362 151.089 40.9193 151.156 40.4141 151.156ZM50.5703 149.484V145.125C50.5703 144.724 50.487 144.378 50.3203 144.086C50.1536 143.794 49.9089 143.57 49.5859 143.414C49.263 143.258 48.8646 143.18 48.3906 143.18C47.9531 143.18 47.5625 143.258 47.2188 143.414C46.8802 143.565 46.612 143.771 46.4141 144.031C46.2214 144.286 46.125 144.57 46.125 144.883L45.1875 144.875C45.1875 144.557 45.2656 144.25 45.4219 143.953C45.5781 143.656 45.7995 143.391 46.0859 143.156C46.3724 142.922 46.7135 142.737 47.1094 142.602C47.5104 142.461 47.9505 142.391 48.4297 142.391C49.0339 142.391 49.5651 142.492 50.0234 142.695C50.487 142.898 50.849 143.203 51.1094 143.609C51.3698 144.016 51.5 144.526 51.5 145.141V149.227C51.5 149.518 51.5208 149.82 51.5625 150.133C51.6094 150.445 51.6745 150.703 51.7578 150.906V151H50.7656C50.7031 150.812 50.6536 150.578 50.6172 150.297C50.5859 150.01 50.5703 149.74 50.5703 149.484ZM50.7891 146.078L50.8047 146.797H48.9688C48.4896 146.797 48.0599 146.841 47.6797 146.93C47.3047 147.013 46.987 147.138 46.7266 147.305C46.4661 147.466 46.2656 147.661 46.125 147.891C45.9896 148.12 45.9219 148.38 45.9219 148.672C45.9219 148.974 45.9974 149.25 46.1484 149.5C46.3047 149.75 46.5234 149.951 46.8047 150.102C47.0911 150.247 47.4297 150.32 47.8203 150.32C48.3411 150.32 48.7995 150.224 49.1953 150.031C49.5964 149.839 49.9271 149.586 50.1875 149.273C50.4479 148.961 50.6224 148.62 50.7109 148.25L51.1172 148.789C51.0495 149.049 50.9245 149.318 50.7422 149.594C50.5651 149.865 50.3333 150.12 50.0469 150.359C49.7604 150.594 49.4219 150.786 49.0312 150.938C48.6458 151.083 48.2083 151.156 47.7188 151.156C47.1667 151.156 46.6849 151.052 46.2734 150.844C45.8672 150.635 45.5495 150.352 45.3203 149.992C45.0964 149.628 44.9844 149.216 44.9844 148.758C44.9844 148.341 45.0729 147.969 45.25 147.641C45.4271 147.307 45.6823 147.026 46.0156 146.797C46.3542 146.562 46.7604 146.385 47.2344 146.266C47.7135 146.141 48.25 146.078 48.8438 146.078H50.7891ZM57.2031 142.547V143.312H52.9688V142.547H57.2031ZM54.5234 140.375H55.4531V148.945C55.4531 149.336 55.5052 149.63 55.6094 149.828C55.7135 150.026 55.849 150.159 56.0156 150.227C56.1823 150.294 56.362 150.328 56.5547 150.328C56.6953 150.328 56.8307 150.32 56.9609 150.305C57.0911 150.284 57.2083 150.263 57.3125 150.242L57.3516 151.031C57.237 151.068 57.0885 151.096 56.9062 151.117C56.724 151.143 56.5417 151.156 56.3594 151.156C56 151.156 55.6823 151.091 55.4062 150.961C55.1302 150.826 54.9141 150.596 54.7578 150.273C54.6016 149.945 54.5234 149.5 54.5234 148.938V140.375ZM62.4297 151.156C61.8776 151.156 61.3698 151.055 60.9062 150.852C60.4479 150.648 60.0469 150.362 59.7031 149.992C59.3646 149.622 59.1016 149.185 58.9141 148.68C58.7318 148.169 58.6406 147.612 58.6406 147.008V146.672C58.6406 146.021 58.737 145.432 58.9297 144.906C59.1224 144.38 59.388 143.93 59.7266 143.555C60.0651 143.18 60.4505 142.893 60.8828 142.695C61.3203 142.492 61.7786 142.391 62.2578 142.391C62.7943 142.391 63.2708 142.487 63.6875 142.68C64.1042 142.867 64.4531 143.135 64.7344 143.484C65.0208 143.828 65.237 144.237 65.3828 144.711C65.5286 145.18 65.6016 145.698 65.6016 146.266V146.836H59.2031V146.039H64.6719V145.93C64.6615 145.456 64.5651 145.013 64.3828 144.602C64.2057 144.185 63.9401 143.846 63.5859 143.586C63.2318 143.326 62.7891 143.195 62.2578 143.195C61.862 143.195 61.4974 143.279 61.1641 143.445C60.8359 143.612 60.5521 143.852 60.3125 144.164C60.0781 144.471 59.8958 144.839 59.7656 145.266C59.6406 145.688 59.5781 146.156 59.5781 146.672V147.008C59.5781 147.477 59.6458 147.914 59.7812 148.32C59.9219 148.721 60.1198 149.076 60.375 149.383C60.6354 149.69 60.9427 149.93 61.2969 150.102C61.651 150.273 62.0417 150.359 62.4688 150.359C62.9688 150.359 63.4115 150.268 63.7969 150.086C64.1823 149.898 64.5286 149.604 64.8359 149.203L65.4219 149.656C65.2396 149.927 65.0104 150.177 64.7344 150.406C64.4635 150.635 64.138 150.818 63.7578 150.953C63.3776 151.089 62.9349 151.156 62.4297 151.156ZM73.8594 150.156L76.4922 142.547H77.5L73.9219 152.359C73.849 152.552 73.7552 152.766 73.6406 153C73.5312 153.234 73.3854 153.458 73.2031 153.672C73.026 153.891 72.8021 154.068 72.5312 154.203C72.2656 154.344 71.9401 154.414 71.5547 154.414C71.4557 154.414 71.3281 154.401 71.1719 154.375C71.0208 154.354 70.9115 154.333 70.8438 154.312L70.8359 153.523C70.8932 153.539 70.9766 153.552 71.0859 153.562C71.1953 153.573 71.2708 153.578 71.3125 153.578C71.651 153.578 71.9349 153.521 72.1641 153.406C72.3984 153.292 72.5938 153.12 72.75 152.891C72.9062 152.667 73.0443 152.385 73.1641 152.047L73.8594 150.156ZM71.3984 142.547L74.0938 149.805L74.3438 150.781L73.6641 151.164L70.3828 142.547H71.3984ZM78.3203 146.906V146.648C78.3203 146.034 78.4089 145.466 78.5859 144.945C78.763 144.424 79.0156 143.974 79.3438 143.594C79.6771 143.214 80.0755 142.919 80.5391 142.711C81.0026 142.497 81.5182 142.391 82.0859 142.391C82.6589 142.391 83.1771 142.497 83.6406 142.711C84.1042 142.919 84.5026 143.214 84.8359 143.594C85.1693 143.974 85.4245 144.424 85.6016 144.945C85.7786 145.466 85.8672 146.034 85.8672 146.648V146.906C85.8672 147.521 85.7786 148.089 85.6016 148.609C85.4245 149.125 85.1693 149.573 84.8359 149.953C84.5078 150.333 84.112 150.63 83.6484 150.844C83.1849 151.052 82.6693 151.156 82.1016 151.156C81.5286 151.156 81.0104 151.052 80.5469 150.844C80.0833 150.63 79.6849 150.333 79.3516 149.953C79.0182 149.573 78.763 149.125 78.5859 148.609C78.4089 148.089 78.3203 147.521 78.3203 146.906ZM79.25 146.648V146.906C79.25 147.37 79.3125 147.81 79.4375 148.227C79.5625 148.638 79.7448 149.005 79.9844 149.328C80.224 149.646 80.5208 149.896 80.875 150.078C81.2292 150.26 81.638 150.352 82.1016 150.352C82.5599 150.352 82.9635 150.26 83.3125 150.078C83.6667 149.896 83.9635 149.646 84.2031 149.328C84.4427 149.005 84.6224 148.638 84.7422 148.227C84.8672 147.81 84.9297 147.37 84.9297 146.906V146.648C84.9297 146.19 84.8672 145.755 84.7422 145.344C84.6224 144.932 84.4401 144.565 84.1953 144.242C83.9557 143.919 83.6589 143.664 83.3047 143.477C82.9505 143.289 82.5443 143.195 82.0859 143.195C81.6276 143.195 81.2214 143.289 80.8672 143.477C80.5182 143.664 80.2214 143.919 79.9766 144.242C79.737 144.565 79.5547 144.932 79.4297 145.344C79.3099 145.755 79.25 146.19 79.25 146.648ZM93.2188 149.047V142.547H94.1562V151H93.2578L93.2188 149.047ZM93.3906 147.484L93.875 147.469C93.875 148 93.8125 148.49 93.6875 148.938C93.5625 149.385 93.3672 149.776 93.1016 150.109C92.8359 150.443 92.4922 150.701 92.0703 150.883C91.6484 151.065 91.1406 151.156 90.5469 151.156C90.1354 151.156 89.7578 151.099 89.4141 150.984C89.0755 150.865 88.7839 150.677 88.5391 150.422C88.2943 150.167 88.1042 149.836 87.9688 149.43C87.8385 149.023 87.7734 148.531 87.7734 147.953V142.547H88.7031V147.969C88.7031 148.422 88.7526 148.799 88.8516 149.102C88.9557 149.404 89.0964 149.646 89.2734 149.828C89.4557 150.01 89.6641 150.141 89.8984 150.219C90.1328 150.297 90.3854 150.336 90.6562 150.336C91.3438 150.336 91.8854 150.203 92.2812 149.938C92.6823 149.672 92.9661 149.323 93.1328 148.891C93.3047 148.453 93.3906 147.984 93.3906 147.484ZM97.5312 143.945V151H96.6016V142.547H97.5078L97.5312 143.945ZM100.523 142.484L100.5 143.344C100.396 143.328 100.294 143.315 100.195 143.305C100.096 143.294 99.9896 143.289 99.875 143.289C99.4688 143.289 99.112 143.365 98.8047 143.516C98.5026 143.661 98.2474 143.867 98.0391 144.133C97.8307 144.393 97.6719 144.701 97.5625 145.055C97.4531 145.404 97.3906 145.779 97.375 146.18L97.0312 146.312C97.0312 145.76 97.0885 145.247 97.2031 144.773C97.3177 144.299 97.4922 143.885 97.7266 143.531C97.9661 143.172 98.2656 142.893 98.625 142.695C98.9896 142.492 99.4167 142.391 99.9062 142.391C100.026 142.391 100.143 142.401 100.258 142.422C100.378 142.438 100.466 142.458 100.523 142.484ZM105.383 146.906V146.648C105.383 146.034 105.471 145.466 105.648 144.945C105.826 144.424 106.078 143.974 106.406 143.594C106.74 143.214 107.138 142.919 107.602 142.711C108.065 142.497 108.581 142.391 109.148 142.391C109.721 142.391 110.24 142.497 110.703 142.711C111.167 142.919 111.565 143.214 111.898 143.594C112.232 143.974 112.487 144.424 112.664 144.945C112.841 145.466 112.93 146.034 112.93 146.648V146.906C112.93 147.521 112.841 148.089 112.664 148.609C112.487 149.125 112.232 149.573 111.898 149.953C111.57 150.333 111.174 150.63 110.711 150.844C110.247 151.052 109.732 151.156 109.164 151.156C108.591 151.156 108.073 151.052 107.609 150.844C107.146 150.63 106.747 150.333 106.414 149.953C106.081 149.573 105.826 149.125 105.648 148.609C105.471 148.089 105.383 147.521 105.383 146.906ZM106.312 146.648V146.906C106.312 147.37 106.375 147.81 106.5 148.227C106.625 148.638 106.807 149.005 107.047 149.328C107.286 149.646 107.583 149.896 107.938 150.078C108.292 150.26 108.701 150.352 109.164 150.352C109.622 150.352 110.026 150.26 110.375 150.078C110.729 149.896 111.026 149.646 111.266 149.328C111.505 149.005 111.685 148.638 111.805 148.227C111.93 147.81 111.992 147.37 111.992 146.906V146.648C111.992 146.19 111.93 145.755 111.805 145.344C111.685 144.932 111.503 144.565 111.258 144.242C111.018 143.919 110.721 143.664 110.367 143.477C110.013 143.289 109.607 143.195 109.148 143.195C108.69 143.195 108.284 143.289 107.93 143.477C107.581 143.664 107.284 143.919 107.039 144.242C106.799 144.565 106.617 144.932 106.492 145.344C106.372 145.755 106.312 146.19 106.312 146.648ZM117.211 149.023L119.25 142.547H119.906L119.516 144.289L117.383 151H116.727L117.211 149.023ZM115.094 142.547L116.883 149.062L117.266 151H116.586L114.133 142.547H115.094ZM122.445 149.039L124.188 142.547H125.148L122.695 151H122.023L122.445 149.039ZM120.039 142.547L122.047 148.969L122.555 151H121.898L119.719 144.281L119.352 142.547H120.039ZM127.875 144.352V151H126.945V142.547H127.836L127.875 144.352ZM127.664 146.25L127.25 146.016C127.281 145.516 127.383 145.047 127.555 144.609C127.727 144.172 127.958 143.786 128.25 143.453C128.547 143.12 128.893 142.859 129.289 142.672C129.69 142.484 130.133 142.391 130.617 142.391C131.039 142.391 131.417 142.448 131.75 142.562C132.083 142.677 132.367 142.859 132.602 143.109C132.836 143.359 133.013 143.68 133.133 144.07C133.258 144.461 133.32 144.938 133.32 145.5V151H132.383V145.492C132.383 144.909 132.302 144.453 132.141 144.125C131.979 143.792 131.75 143.555 131.453 143.414C131.156 143.273 130.805 143.203 130.398 143.203C129.951 143.203 129.557 143.302 129.219 143.5C128.885 143.693 128.604 143.945 128.375 144.258C128.151 144.565 127.979 144.896 127.859 145.25C127.74 145.599 127.674 145.932 127.664 146.25ZM140.578 143.945V151H139.648V142.547H140.555L140.578 143.945ZM143.57 142.484L143.547 143.344C143.443 143.328 143.341 143.315 143.242 143.305C143.143 143.294 143.036 143.289 142.922 143.289C142.516 143.289 142.159 143.365 141.852 143.516C141.549 143.661 141.294 143.867 141.086 144.133C140.878 144.393 140.719 144.701 140.609 145.055C140.5 145.404 140.438 145.779 140.422 146.18L140.078 146.312C140.078 145.76 140.135 145.247 140.25 144.773C140.365 144.299 140.539 143.885 140.773 143.531C141.013 143.172 141.312 142.893 141.672 142.695C142.036 142.492 142.464 142.391 142.953 142.391C143.073 142.391 143.19 142.401 143.305 142.422C143.424 142.438 143.513 142.458 143.57 142.484ZM149.867 149.484V145.125C149.867 144.724 149.784 144.378 149.617 144.086C149.451 143.794 149.206 143.57 148.883 143.414C148.56 143.258 148.161 143.18 147.688 143.18C147.25 143.18 146.859 143.258 146.516 143.414C146.177 143.565 145.909 143.771 145.711 144.031C145.518 144.286 145.422 144.57 145.422 144.883L144.484 144.875C144.484 144.557 144.562 144.25 144.719 143.953C144.875 143.656 145.096 143.391 145.383 143.156C145.669 142.922 146.01 142.737 146.406 142.602C146.807 142.461 147.247 142.391 147.727 142.391C148.331 142.391 148.862 142.492 149.32 142.695C149.784 142.898 150.146 143.203 150.406 143.609C150.667 144.016 150.797 144.526 150.797 145.141V149.227C150.797 149.518 150.818 149.82 150.859 150.133C150.906 150.445 150.971 150.703 151.055 150.906V151H150.062C150 150.812 149.951 150.578 149.914 150.297C149.883 150.01 149.867 149.74 149.867 149.484ZM150.086 146.078L150.102 146.797H148.266C147.786 146.797 147.357 146.841 146.977 146.93C146.602 147.013 146.284 147.138 146.023 147.305C145.763 147.466 145.562 147.661 145.422 147.891C145.286 148.12 145.219 148.38 145.219 148.672C145.219 148.974 145.294 149.25 145.445 149.5C145.602 149.75 145.82 149.951 146.102 150.102C146.388 150.247 146.727 150.32 147.117 150.32C147.638 150.32 148.096 150.224 148.492 150.031C148.893 149.839 149.224 149.586 149.484 149.273C149.745 148.961 149.919 148.62 150.008 148.25L150.414 148.789C150.346 149.049 150.221 149.318 150.039 149.594C149.862 149.865 149.63 150.12 149.344 150.359C149.057 150.594 148.719 150.786 148.328 150.938C147.943 151.083 147.505 151.156 147.016 151.156C146.464 151.156 145.982 151.052 145.57 150.844C145.164 150.635 144.846 150.352 144.617 149.992C144.393 149.628 144.281 149.216 144.281 148.758C144.281 148.341 144.37 147.969 144.547 147.641C144.724 147.307 144.979 147.026 145.312 146.797C145.651 146.562 146.057 146.385 146.531 146.266C147.01 146.141 147.547 146.078 148.141 146.078H150.086ZM158.797 149.359V139H159.734V151H158.859L158.797 149.359ZM152.93 146.859V146.695C152.93 146.039 153.005 145.448 153.156 144.922C153.307 144.391 153.523 143.938 153.805 143.562C154.091 143.182 154.435 142.893 154.836 142.695C155.237 142.492 155.69 142.391 156.195 142.391C156.69 142.391 157.128 142.471 157.508 142.633C157.888 142.794 158.214 143.026 158.484 143.328C158.76 143.63 158.982 143.99 159.148 144.406C159.32 144.823 159.445 145.286 159.523 145.797V147.883C159.461 148.362 159.346 148.802 159.18 149.203C159.013 149.599 158.792 149.945 158.516 150.242C158.24 150.534 157.906 150.76 157.516 150.922C157.13 151.078 156.685 151.156 156.18 151.156C155.68 151.156 155.229 151.052 154.828 150.844C154.427 150.635 154.086 150.341 153.805 149.961C153.523 149.576 153.307 149.12 153.156 148.594C153.005 148.068 152.93 147.49 152.93 146.859ZM153.867 146.695V146.859C153.867 147.354 153.917 147.812 154.016 148.234C154.115 148.656 154.266 149.023 154.469 149.336C154.672 149.648 154.93 149.893 155.242 150.07C155.555 150.247 155.924 150.336 156.352 150.336C156.888 150.336 157.339 150.234 157.703 150.031C158.068 149.823 158.359 149.549 158.578 149.211C158.797 148.867 158.956 148.492 159.055 148.086V145.656C158.992 145.38 158.901 145.099 158.781 144.812C158.661 144.526 158.497 144.263 158.289 144.023C158.086 143.779 157.826 143.583 157.508 143.438C157.195 143.286 156.815 143.211 156.367 143.211C155.935 143.211 155.562 143.299 155.25 143.477C154.938 143.654 154.677 143.901 154.469 144.219C154.266 144.531 154.115 144.898 154.016 145.32C153.917 145.742 153.867 146.201 153.867 146.695ZM163.234 142.547V151H162.305V142.547H163.234ZM162.141 140.102C162.141 139.924 162.195 139.776 162.305 139.656C162.419 139.531 162.576 139.469 162.773 139.469C162.971 139.469 163.128 139.531 163.242 139.656C163.362 139.776 163.422 139.924 163.422 140.102C163.422 140.273 163.362 140.422 163.242 140.547C163.128 140.667 162.971 140.727 162.773 140.727C162.576 140.727 162.419 140.667 162.305 140.547C162.195 140.422 162.141 140.273 162.141 140.102ZM165.273 146.906V146.648C165.273 146.034 165.362 145.466 165.539 144.945C165.716 144.424 165.969 143.974 166.297 143.594C166.63 143.214 167.029 142.919 167.492 142.711C167.956 142.497 168.471 142.391 169.039 142.391C169.612 142.391 170.13 142.497 170.594 142.711C171.057 142.919 171.456 143.214 171.789 143.594C172.122 143.974 172.378 144.424 172.555 144.945C172.732 145.466 172.82 146.034 172.82 146.648V146.906C172.82 147.521 172.732 148.089 172.555 148.609C172.378 149.125 172.122 149.573 171.789 149.953C171.461 150.333 171.065 150.63 170.602 150.844C170.138 151.052 169.622 151.156 169.055 151.156C168.482 151.156 167.964 151.052 167.5 150.844C167.036 150.63 166.638 150.333 166.305 149.953C165.971 149.573 165.716 149.125 165.539 148.609C165.362 148.089 165.273 147.521 165.273 146.906ZM166.203 146.648V146.906C166.203 147.37 166.266 147.81 166.391 148.227C166.516 148.638 166.698 149.005 166.938 149.328C167.177 149.646 167.474 149.896 167.828 150.078C168.182 150.26 168.591 150.352 169.055 150.352C169.513 150.352 169.917 150.26 170.266 150.078C170.62 149.896 170.917 149.646 171.156 149.328C171.396 149.005 171.576 148.638 171.695 148.227C171.82 147.81 171.883 147.37 171.883 146.906V146.648C171.883 146.19 171.82 145.755 171.695 145.344C171.576 144.932 171.393 144.565 171.148 144.242C170.909 143.919 170.612 143.664 170.258 143.477C169.904 143.289 169.497 143.195 169.039 143.195C168.581 143.195 168.174 143.289 167.82 143.477C167.471 143.664 167.174 143.919 166.93 144.242C166.69 144.565 166.508 144.932 166.383 145.344C166.263 145.755 166.203 146.19 166.203 146.648ZM183.805 149.484V145.125C183.805 144.724 183.721 144.378 183.555 144.086C183.388 143.794 183.143 143.57 182.82 143.414C182.497 143.258 182.099 143.18 181.625 143.18C181.188 143.18 180.797 143.258 180.453 143.414C180.115 143.565 179.846 143.771 179.648 144.031C179.456 144.286 179.359 144.57 179.359 144.883L178.422 144.875C178.422 144.557 178.5 144.25 178.656 143.953C178.812 143.656 179.034 143.391 179.32 143.156C179.607 142.922 179.948 142.737 180.344 142.602C180.745 142.461 181.185 142.391 181.664 142.391C182.268 142.391 182.799 142.492 183.258 142.695C183.721 142.898 184.083 143.203 184.344 143.609C184.604 144.016 184.734 144.526 184.734 145.141V149.227C184.734 149.518 184.755 149.82 184.797 150.133C184.844 150.445 184.909 150.703 184.992 150.906V151H184C183.938 150.812 183.888 150.578 183.852 150.297C183.82 150.01 183.805 149.74 183.805 149.484ZM184.023 146.078L184.039 146.797H182.203C181.724 146.797 181.294 146.841 180.914 146.93C180.539 147.013 180.221 147.138 179.961 147.305C179.701 147.466 179.5 147.661 179.359 147.891C179.224 148.12 179.156 148.38 179.156 148.672C179.156 148.974 179.232 149.25 179.383 149.5C179.539 149.75 179.758 149.951 180.039 150.102C180.326 150.247 180.664 150.32 181.055 150.32C181.576 150.32 182.034 150.224 182.43 150.031C182.831 149.839 183.161 149.586 183.422 149.273C183.682 148.961 183.857 148.62 183.945 148.25L184.352 148.789C184.284 149.049 184.159 149.318 183.977 149.594C183.799 149.865 183.568 150.12 183.281 150.359C182.995 150.594 182.656 150.786 182.266 150.938C181.88 151.083 181.443 151.156 180.953 151.156C180.401 151.156 179.919 151.052 179.508 150.844C179.102 150.635 178.784 150.352 178.555 149.992C178.331 149.628 178.219 149.216 178.219 148.758C178.219 148.341 178.307 147.969 178.484 147.641C178.661 147.307 178.917 147.026 179.25 146.797C179.589 146.562 179.995 146.385 180.469 146.266C180.948 146.141 181.484 146.078 182.078 146.078H184.023ZM188.172 144.352V151H187.242V142.547H188.133L188.172 144.352ZM187.961 146.25L187.547 146.016C187.578 145.516 187.68 145.047 187.852 144.609C188.023 144.172 188.255 143.786 188.547 143.453C188.844 143.12 189.19 142.859 189.586 142.672C189.987 142.484 190.43 142.391 190.914 142.391C191.336 142.391 191.714 142.448 192.047 142.562C192.38 142.677 192.664 142.859 192.898 143.109C193.133 143.359 193.31 143.68 193.43 144.07C193.555 144.461 193.617 144.938 193.617 145.5V151H192.68V145.492C192.68 144.909 192.599 144.453 192.438 144.125C192.276 143.792 192.047 143.555 191.75 143.414C191.453 143.273 191.102 143.203 190.695 143.203C190.247 143.203 189.854 143.302 189.516 143.5C189.182 143.693 188.901 143.945 188.672 144.258C188.448 144.565 188.276 144.896 188.156 145.25C188.036 145.599 187.971 145.932 187.961 146.25ZM201.531 149.359V139H202.469V151H201.594L201.531 149.359ZM195.664 146.859V146.695C195.664 146.039 195.74 145.448 195.891 144.922C196.042 144.391 196.258 143.938 196.539 143.562C196.826 143.182 197.169 142.893 197.57 142.695C197.971 142.492 198.424 142.391 198.93 142.391C199.424 142.391 199.862 142.471 200.242 142.633C200.622 142.794 200.948 143.026 201.219 143.328C201.495 143.63 201.716 143.99 201.883 144.406C202.055 144.823 202.18 145.286 202.258 145.797V147.883C202.195 148.362 202.081 148.802 201.914 149.203C201.747 149.599 201.526 149.945 201.25 150.242C200.974 150.534 200.641 150.76 200.25 150.922C199.865 151.078 199.419 151.156 198.914 151.156C198.414 151.156 197.964 151.052 197.562 150.844C197.161 150.635 196.82 150.341 196.539 149.961C196.258 149.576 196.042 149.12 195.891 148.594C195.74 148.068 195.664 147.49 195.664 146.859ZM196.602 146.695V146.859C196.602 147.354 196.651 147.812 196.75 148.234C196.849 148.656 197 149.023 197.203 149.336C197.406 149.648 197.664 149.893 197.977 150.07C198.289 150.247 198.659 150.336 199.086 150.336C199.622 150.336 200.073 150.234 200.438 150.031C200.802 149.823 201.094 149.549 201.312 149.211C201.531 148.867 201.69 148.492 201.789 148.086V145.656C201.727 145.38 201.635 145.099 201.516 144.812C201.396 144.526 201.232 144.263 201.023 144.023C200.82 143.779 200.56 143.583 200.242 143.438C199.93 143.286 199.549 143.211 199.102 143.211C198.669 143.211 198.297 143.299 197.984 143.477C197.672 143.654 197.411 143.901 197.203 144.219C197 144.531 196.849 144.898 196.75 145.32C196.651 145.742 196.602 146.201 196.602 146.695ZM88.3828 168.023L90.4219 161.547H91.0781L90.6875 163.289L88.5547 170H87.8984L88.3828 168.023ZM86.2656 161.547L88.0547 168.062L88.4375 170H87.7578L85.3047 161.547H86.2656ZM93.6172 168.039L95.3594 161.547H96.3203L93.8672 170H93.1953L93.6172 168.039ZM91.2109 161.547L93.2188 167.969L93.7266 170H93.0703L90.8906 163.281L90.5234 161.547H91.2109ZM101.383 170.156C100.831 170.156 100.323 170.055 99.8594 169.852C99.401 169.648 99 169.362 98.6562 168.992C98.3177 168.622 98.0547 168.185 97.8672 167.68C97.6849 167.169 97.5938 166.612 97.5938 166.008V165.672C97.5938 165.021 97.6901 164.432 97.8828 163.906C98.0755 163.38 98.3411 162.93 98.6797 162.555C99.0182 162.18 99.4036 161.893 99.8359 161.695C100.273 161.492 100.732 161.391 101.211 161.391C101.747 161.391 102.224 161.487 102.641 161.68C103.057 161.867 103.406 162.135 103.688 162.484C103.974 162.828 104.19 163.237 104.336 163.711C104.482 164.18 104.555 164.698 104.555 165.266V165.836H98.1562V165.039H103.625V164.93C103.615 164.456 103.518 164.013 103.336 163.602C103.159 163.185 102.893 162.846 102.539 162.586C102.185 162.326 101.742 162.195 101.211 162.195C100.815 162.195 100.451 162.279 100.117 162.445C99.7891 162.612 99.5052 162.852 99.2656 163.164C99.0312 163.471 98.849 163.839 98.7188 164.266C98.5938 164.688 98.5312 165.156 98.5312 165.672V166.008C98.5312 166.477 98.599 166.914 98.7344 167.32C98.875 167.721 99.0729 168.076 99.3281 168.383C99.5885 168.69 99.8958 168.93 100.25 169.102C100.604 169.273 100.995 169.359 101.422 169.359C101.922 169.359 102.365 169.268 102.75 169.086C103.135 168.898 103.482 168.604 103.789 168.203L104.375 168.656C104.193 168.927 103.964 169.177 103.688 169.406C103.417 169.635 103.091 169.818 102.711 169.953C102.331 170.089 101.888 170.156 101.383 170.156ZM106.383 158H107.32V168.359L107.258 170H106.383V158ZM113.203 165.695V165.859C113.203 166.49 113.13 167.068 112.984 167.594C112.839 168.12 112.628 168.576 112.352 168.961C112.076 169.341 111.737 169.635 111.336 169.844C110.94 170.052 110.484 170.156 109.969 170.156C109.464 170.156 109.016 170.078 108.625 169.922C108.234 169.76 107.901 169.534 107.625 169.242C107.349 168.945 107.128 168.599 106.961 168.203C106.794 167.802 106.677 167.362 106.609 166.883V164.797C106.688 164.286 106.812 163.823 106.984 163.406C107.156 162.99 107.378 162.63 107.648 162.328C107.924 162.026 108.253 161.794 108.633 161.633C109.018 161.471 109.458 161.391 109.953 161.391C110.469 161.391 110.927 161.492 111.328 161.695C111.734 161.893 112.076 162.182 112.352 162.562C112.628 162.938 112.839 163.391 112.984 163.922C113.13 164.448 113.203 165.039 113.203 165.695ZM112.258 165.859V165.695C112.258 165.201 112.211 164.742 112.117 164.32C112.023 163.898 111.875 163.531 111.672 163.219C111.474 162.901 111.219 162.654 110.906 162.477C110.594 162.299 110.219 162.211 109.781 162.211C109.333 162.211 108.951 162.286 108.633 162.438C108.32 162.583 108.06 162.779 107.852 163.023C107.648 163.263 107.487 163.526 107.367 163.812C107.247 164.099 107.159 164.38 107.102 164.656V167.086C107.19 167.477 107.344 167.844 107.562 168.188C107.781 168.531 108.076 168.81 108.445 169.023C108.815 169.232 109.266 169.336 109.797 169.336C110.224 169.336 110.591 169.247 110.898 169.07C111.211 168.893 111.466 168.648 111.664 168.336C111.867 168.023 112.016 167.656 112.109 167.234C112.208 166.812 112.258 166.354 112.258 165.859ZM120.336 167.844C120.336 167.615 120.279 167.388 120.164 167.164C120.049 166.94 119.828 166.734 119.5 166.547C119.177 166.359 118.701 166.201 118.07 166.07C117.602 165.966 117.182 165.849 116.812 165.719C116.448 165.589 116.141 165.432 115.891 165.25C115.641 165.068 115.451 164.849 115.32 164.594C115.19 164.339 115.125 164.036 115.125 163.688C115.125 163.375 115.193 163.081 115.328 162.805C115.469 162.523 115.667 162.279 115.922 162.07C116.182 161.857 116.495 161.69 116.859 161.57C117.229 161.451 117.643 161.391 118.102 161.391C118.753 161.391 119.31 161.503 119.773 161.727C120.242 161.945 120.599 162.245 120.844 162.625C121.094 163.005 121.219 163.435 121.219 163.914H120.289C120.289 163.622 120.203 163.346 120.031 163.086C119.865 162.826 119.617 162.612 119.289 162.445C118.966 162.279 118.57 162.195 118.102 162.195C117.617 162.195 117.224 162.268 116.922 162.414C116.62 162.56 116.398 162.745 116.258 162.969C116.122 163.193 116.055 163.424 116.055 163.664C116.055 163.852 116.083 164.023 116.141 164.18C116.203 164.331 116.312 164.471 116.469 164.602C116.63 164.732 116.859 164.854 117.156 164.969C117.453 165.083 117.839 165.195 118.312 165.305C118.995 165.456 119.552 165.641 119.984 165.859C120.422 166.073 120.745 166.339 120.953 166.656C121.161 166.969 121.266 167.349 121.266 167.797C121.266 168.146 121.193 168.466 121.047 168.758C120.901 169.044 120.69 169.292 120.414 169.5C120.143 169.708 119.815 169.87 119.43 169.984C119.049 170.099 118.622 170.156 118.148 170.156C117.435 170.156 116.831 170.039 116.336 169.805C115.846 169.565 115.474 169.253 115.219 168.867C114.969 168.477 114.844 168.062 114.844 167.625H115.773C115.805 168.062 115.943 168.409 116.188 168.664C116.432 168.914 116.732 169.091 117.086 169.195C117.445 169.299 117.799 169.352 118.148 169.352C118.628 169.352 119.029 169.281 119.352 169.141C119.674 169 119.919 168.815 120.086 168.586C120.253 168.357 120.336 168.109 120.336 167.844ZM124.422 161.547V170H123.492V161.547H124.422ZM123.328 159.102C123.328 158.924 123.383 158.776 123.492 158.656C123.607 158.531 123.763 158.469 123.961 158.469C124.159 158.469 124.315 158.531 124.43 158.656C124.549 158.776 124.609 158.924 124.609 159.102C124.609 159.273 124.549 159.422 124.43 159.547C124.315 159.667 124.159 159.727 123.961 159.727C123.763 159.727 123.607 159.667 123.492 159.547C123.383 159.422 123.328 159.273 123.328 159.102ZM130.172 161.547V162.312H125.938V161.547H130.172ZM127.492 159.375H128.422V167.945C128.422 168.336 128.474 168.63 128.578 168.828C128.682 169.026 128.818 169.159 128.984 169.227C129.151 169.294 129.331 169.328 129.523 169.328C129.664 169.328 129.799 169.32 129.93 169.305C130.06 169.284 130.177 169.263 130.281 169.242L130.32 170.031C130.206 170.068 130.057 170.096 129.875 170.117C129.693 170.143 129.51 170.156 129.328 170.156C128.969 170.156 128.651 170.091 128.375 169.961C128.099 169.826 127.883 169.596 127.727 169.273C127.57 168.945 127.492 168.5 127.492 167.938V159.375ZM135.398 170.156C134.846 170.156 134.339 170.055 133.875 169.852C133.417 169.648 133.016 169.362 132.672 168.992C132.333 168.622 132.07 168.185 131.883 167.68C131.701 167.169 131.609 166.612 131.609 166.008V165.672C131.609 165.021 131.706 164.432 131.898 163.906C132.091 163.38 132.357 162.93 132.695 162.555C133.034 162.18 133.419 161.893 133.852 161.695C134.289 161.492 134.747 161.391 135.227 161.391C135.763 161.391 136.24 161.487 136.656 161.68C137.073 161.867 137.422 162.135 137.703 162.484C137.99 162.828 138.206 163.237 138.352 163.711C138.497 164.18 138.57 164.698 138.57 165.266V165.836H132.172V165.039H137.641V164.93C137.63 164.456 137.534 164.013 137.352 163.602C137.174 163.185 136.909 162.846 136.555 162.586C136.201 162.326 135.758 162.195 135.227 162.195C134.831 162.195 134.466 162.279 134.133 162.445C133.805 162.612 133.521 162.852 133.281 163.164C133.047 163.471 132.865 163.839 132.734 164.266C132.609 164.688 132.547 165.156 132.547 165.672V166.008C132.547 166.477 132.615 166.914 132.75 167.32C132.891 167.721 133.089 168.076 133.344 168.383C133.604 168.69 133.911 168.93 134.266 169.102C134.62 169.273 135.01 169.359 135.438 169.359C135.938 169.359 136.38 169.268 136.766 169.086C137.151 168.898 137.497 168.604 137.805 168.203L138.391 168.656C138.208 168.927 137.979 169.177 137.703 169.406C137.432 169.635 137.107 169.818 136.727 169.953C136.346 170.089 135.904 170.156 135.398 170.156Z" fill="#EFEFEF"/>
<path fill-rule="evenodd" clip-rule="evenodd" d="M113.986 0.0112305C146.571 0.0112305 172.986 26.4261 172.986 59.0109C172.986 91.5959 146.571 118.011 113.986 118.011C81.4013 118.011 54.9859 91.5959 54.9859 59.0109C54.9859 26.4261 81.4013 0.0112305 113.986 0.0112305Z" fill="#F9BF3B"/>
<path d="M118.235 37.307C118.139 37.307 118.04 37.2875 117.946 37.2464C117.583 37.0879 117.418 36.6678 117.578 36.3081L120.64 29.425C120.738 29.2055 120.94 29.0496 121.179 29.0099C121.417 28.97 121.661 29.0523 121.825 29.2283L124.944 32.5637C125.214 32.8522 125.197 33.3024 124.905 33.5697C124.614 33.8367 124.16 33.8196 123.89 33.5311L121.514 30.9908L118.894 36.8819C118.775 37.1484 118.512 37.307 118.235 37.307Z" fill="#415A6B"/>
<path d="M133.003 50.7194H90.019C89.6221 50.7194 89.3003 50.4007 89.3003 50.0076V43.5587C89.3003 43.1657 89.6221 42.8469 90.019 42.8469H133.003C133.4 42.8469 133.722 43.1657 133.722 43.5587V50.0076C133.722 50.4007 133.4 50.7194 133.003 50.7194ZM90.7378 49.2958H132.284V44.2705H90.7378V49.2958Z" fill="#415A6B"/>
<path d="M113.465 88.9999H83.5057V59.3308H113.465H139.516V88.9999H113.465Z" fill="#415A6B"/>
<path d="M85.4593 62.0727H115.418H139.516V59.3308H113.465H83.5057V88.9999H85.4593V62.0727Z" fill="#344C59"/>
<path d="M133.37 30.2296C134.699 31.545 134.199 33.5394 134.272 36.0991C131.688 36.0265 129.675 36.5205 128.347 35.2036C127.612 34.4776 127.579 33.3316 128.274 32.644C128.9 32.0233 129.547 32.0404 130.525 32.3878C130.174 31.4197 130.157 30.7791 130.783 30.1584C131.479 29.4694 132.637 29.5021 133.37 30.2296Z" fill="#EF3E5C"/>
<path d="M133.37 30.2296C132.636 29.5021 131.479 29.4694 130.784 30.1584C130.454 30.4847 130.304 30.8171 130.285 31.1992C130.971 30.8363 131.865 30.9616 132.471 31.5628C133.559 32.639 133.422 34.1702 133.376 36.0934C133.667 36.0901 133.965 36.0905 134.272 36.0992C134.199 33.5394 134.699 31.545 133.37 30.2296Z" fill="#DD2C52"/>
<path d="M118.262 34.2859C119.28 35.2921 119.282 36.9255 118.266 37.9343C117.25 38.9431 115.601 38.9456 114.582 37.9394C113.564 36.9332 113.56 35.2996 114.577 34.2907C115.592 33.282 117.243 33.2797 118.262 34.2859Z" fill="#415A6B"/>
<path d="M116.181 38.4664C115.162 37.4602 115.159 35.8266 116.175 34.8177C116.678 34.3183 117.336 34.0665 117.997 34.0605C116.974 33.2895 115.509 33.3651 114.577 34.2908C113.56 35.2996 113.564 36.9333 114.582 37.9395C115.097 38.4477 115.772 38.6977 116.445 38.6916C116.354 38.6224 116.264 38.5491 116.181 38.4664Z" fill="#344C59"/>
<path d="M109.076 32.6428C109.772 33.3318 109.739 34.4778 109.004 35.2038C107.676 36.5207 105.662 36.0252 103.077 36.0978C103.151 33.5382 102.652 31.5452 103.981 30.2298C104.715 29.5023 105.872 29.4696 106.566 30.1572C107.193 30.7779 107.176 31.4185 106.825 32.3865C107.802 32.0392 108.449 32.0221 109.076 32.6428Z" fill="#EF3E5C"/>
<path d="M104.988 31.5862C105.562 31.0166 106.395 30.875 107.063 31.1695C107.039 30.7992 106.887 30.4755 106.566 30.1572C105.872 29.4696 104.715 29.5023 103.981 30.2298C102.652 31.5452 103.151 33.5382 103.077 36.0978C103.422 36.0882 103.757 36.0887 104.081 36.0936C104.035 34.181 103.904 32.6584 104.988 31.5862Z" fill="#DD2C52"/>
<path d="M91.5948 30.5075C93.4607 32.3553 92.7593 35.1555 92.8627 38.7487C89.233 38.6462 86.4083 39.3394 84.5424 37.4916C83.5132 36.4723 83.4672 34.8622 84.4388 33.8985C85.3215 33.0258 86.2285 33.0514 87.6013 33.5383C87.1096 32.1788 87.0838 31.2805 87.965 30.4078C88.9397 29.4412 90.5655 29.4882 91.5948 30.5075Z" fill="#EF3E5C"/>
<path d="M91.5945 30.5075C90.5653 29.4882 88.9395 29.4412 87.9649 30.4078C87.3713 30.9956 87.1905 31.5957 87.2852 32.3398C87.3082 32.3156 87.3295 32.2912 87.3539 32.2669C88.3285 31.3003 89.9544 31.3473 90.9836 32.3665C92.5122 33.8804 92.3177 36.0339 92.2545 38.7386C92.4547 38.7398 92.6571 38.7428 92.8624 38.7487C92.7591 35.1555 93.4604 32.3553 91.5945 30.5075Z" fill="#DD2C52"/>
<path d="M139.516 49.0112V59.3309H113.465H83.5057V49.0112H90.019H133.003H139.516Z" fill="#F78F4B"/>
<path d="M85.4593 51.0135H91.9726H134.957H139.516V49.0112H133.003H90.019H83.5057V59.3309H85.4593V51.0135Z" fill="#E2783D"/>
<path d="M125.187 82.5512C130.223 82.5512 134.305 78.5084 134.305 73.5213C134.305 68.5343 130.223 64.4915 125.187 64.4915C120.152 64.4915 116.069 68.5343 116.069 73.5213C116.069 78.5084 120.152 82.5512 125.187 82.5512Z" fill="#EF3E5C"/>
<path d="M116.933 75.372C116.933 70.3853 121.015 66.3421 126.051 66.3421C129.351 66.3421 132.242 68.0789 133.842 70.6798C132.639 67.0857 129.22 64.4915 125.188 64.4915C120.152 64.4915 116.069 68.5345 116.069 73.5213C116.069 75.2399 116.554 76.8461 117.396 78.2136C117.097 77.3199 116.933 76.3651 116.933 75.372Z" fill="#DD2C52"/>
<path d="M109.558 78.6804H106.953V81.2614H109.558V78.6804Z" fill="white"/>
<path d="M109.558 74.811H106.953V77.3906H109.558V74.811Z" fill="white"/>
<path d="M109.558 70.9417H106.953V73.5212H109.558V70.9417Z" fill="white"/>
<path d="M109.558 67.071H106.953V69.6506H109.558V67.071Z" fill="white"/>
<path d="M105.649 78.6804H100.439V81.2614H105.649V78.6804Z" fill="white"/>
<path d="M105.649 74.811H103.044V77.3906H105.649V74.811Z" fill="white"/>
<path d="M105.649 70.9417H100.439V73.5212H105.649V70.9417Z" fill="white"/>
<path d="M105.649 67.071H103.044V69.6506H105.649V67.071Z" fill="white"/>
<path d="M101.742 74.811H99.1371V77.3906H101.742V74.811Z" fill="white"/>
<path d="M101.742 67.071H99.1371V69.6506H101.742V67.071Z" fill="white"/>
<path d="M99.1371 78.6804H96.5325V81.2614H99.1371V78.6804Z" fill="white"/>
<path d="M99.1371 70.9417H96.5325V73.5212H99.1371V70.9417Z" fill="white"/>
<path d="M97.8347 74.811H92.6238V77.3906H97.8347V74.811Z" fill="white"/>
<path d="M97.8347 67.071H92.6238V69.6506H97.8347V67.071Z" fill="white"/>
<path d="M95.2285 78.6804H92.6238V81.2614H95.2285V78.6804Z" fill="white"/>
<path d="M95.2285 70.9417H92.6238V73.5212H95.2285V70.9417Z" fill="white"/>
<path d="M91.3214 78.6804H88.7167V81.2614H91.3214V78.6804Z" fill="white"/>
<path d="M91.3214 74.811H88.7167V77.3906H91.3214V74.811Z" fill="white"/>
<path d="M91.3214 70.9417H88.7167V73.5212H91.3214V70.9417Z" fill="white"/>
<path d="M91.3214 67.071H88.7167V69.6506H91.3214V67.071Z" fill="white"/>
<path d="M134.305 54.8836H88.7166C88.3196 54.8836 87.9979 54.5648 87.9979 54.1718C87.9979 53.7787 88.3196 53.46 88.7166 53.46H134.305C134.702 53.46 135.024 53.7787 135.024 54.1718C135.024 54.5648 134.702 54.8836 134.305 54.8836Z" fill="#E2783D"/>
<path d="M127.794 56.1736C127.397 56.1736 127.075 55.8548 127.075 55.4618V52.8822C127.075 52.4892 127.397 52.1704 127.794 52.1704C128.191 52.1704 128.512 52.4892 128.512 52.8822V55.4618C128.512 55.8548 128.191 56.1736 127.794 56.1736Z" fill="#E2783D"/>
<path d="M133.003 71.6536H121.28C120.883 71.6536 120.562 71.335 120.562 70.9418C120.562 70.5486 120.883 70.23 121.28 70.23H133.003C133.4 70.23 133.722 70.5486 133.722 70.9418C133.722 71.335 133.4 71.6536 133.003 71.6536Z" fill="white"/>
<path d="M133.866 75.6084H118.236C117.839 75.6084 117.517 75.2898 117.517 74.8966C117.517 74.5034 117.839 74.1848 118.236 74.1848H133.865C134.263 74.1848 134.584 74.5034 134.584 74.8966C134.584 75.2898 134.263 75.6084 133.866 75.6084Z" fill="white"/>
<path d="M127.794 82.5512C127.397 82.5512 127.075 82.2106 127.075 81.7907V65.2519C127.075 64.832 127.397 64.4915 127.794 64.4915C128.191 64.4915 128.512 64.832 128.512 65.2519V81.7907C128.512 82.2106 128.191 82.5512 127.794 82.5512Z" fill="white"/>
<path d="M113.465 68.0592C113.068 68.0592 112.746 67.7406 112.746 67.3474V60.8971C112.746 60.5039 113.068 60.1853 113.465 60.1853C113.862 60.1853 114.183 60.5039 114.183 60.8971V67.3474C114.183 67.7406 113.862 68.0592 113.465 68.0592Z" fill="#344C59"/>
<path d="M125.187 83.263C119.763 83.263 115.35 78.8928 115.35 73.5212C115.35 68.1495 119.763 63.7795 125.187 63.7795C130.612 63.7795 135.024 68.1495 135.024 73.5212C135.024 78.8928 130.612 83.263 125.187 83.263ZM125.187 65.2031C120.556 65.2031 116.788 68.9347 116.788 73.5212C116.788 78.1079 120.556 81.8394 125.187 81.8394C129.819 81.8394 133.587 78.1079 133.587 73.5212C133.587 68.9347 129.819 65.2031 125.187 65.2031Z" fill="white"/>
</svg>
