<svg width="224" height="155" viewBox="0 0 224 155" fill="none" xmlns="http://www.w3.org/2000/svg">
<path d="M38.2734 144.703V145.922C38.2734 146.719 38.1693 147.44 37.9609 148.086C37.7578 148.727 37.4609 149.276 37.0703 149.734C36.6849 150.193 36.2214 150.544 35.6797 150.789C35.138 151.034 34.5286 151.156 33.8516 151.156C33.1901 151.156 32.5859 151.034 32.0391 150.789C31.4974 150.544 31.0312 150.193 30.6406 149.734C30.25 149.276 29.9479 148.727 29.7344 148.086C29.5208 147.44 29.4141 146.719 29.4141 145.922V144.703C29.4141 143.906 29.5182 143.188 29.7266 142.547C29.9401 141.901 30.2422 141.349 30.6328 140.891C31.0234 140.432 31.4896 140.081 32.0312 139.836C32.5729 139.591 33.1745 139.469 33.8359 139.469C34.513 139.469 35.1224 139.591 35.6641 139.836C36.2057 140.081 36.6719 140.432 37.0625 140.891C37.4531 141.349 37.7526 141.901 37.9609 142.547C38.1693 143.188 38.2734 143.906 38.2734 144.703ZM37.3203 145.922V144.688C37.3203 144.016 37.2422 143.411 37.0859 142.875C36.9349 142.339 36.7083 141.88 36.4062 141.5C36.1094 141.12 35.7448 140.828 35.3125 140.625C34.8802 140.422 34.388 140.32 33.8359 140.32C33.2995 140.32 32.8177 140.422 32.3906 140.625C31.9635 140.828 31.599 141.12 31.2969 141.5C31 141.88 30.7708 142.339 30.6094 142.875C30.4531 143.411 30.375 144.016 30.375 144.688V145.922C30.375 146.599 30.4531 147.208 30.6094 147.75C30.7708 148.286 31.0026 148.747 31.3047 149.133C31.6068 149.513 31.9714 149.805 32.3984 150.008C32.8307 150.211 33.3151 150.312 33.8516 150.312C34.4089 150.312 34.901 150.211 35.3281 150.008C35.7552 149.805 36.1172 149.513 36.4141 149.133C36.7109 148.747 36.9349 148.286 37.0859 147.75C37.2422 147.208 37.3203 146.599 37.3203 145.922ZM41.4062 144.172V154.25H40.4688V142.547H41.3438L41.4062 144.172ZM47.2812 146.695V146.859C47.2812 147.49 47.2083 148.068 47.0625 148.594C46.9167 149.12 46.7057 149.576 46.4297 149.961C46.1589 150.341 45.8229 150.635 45.4219 150.844C45.0208 151.052 44.5651 151.156 44.0547 151.156C43.5495 151.156 43.099 151.078 42.7031 150.922C42.3073 150.766 41.9661 150.544 41.6797 150.258C41.3984 149.966 41.1719 149.628 41 149.242C40.8333 148.852 40.7161 148.424 40.6484 147.961V145.797C40.7266 145.286 40.8542 144.823 41.0312 144.406C41.2083 143.99 41.4349 143.63 41.7109 143.328C41.9922 143.026 42.3255 142.794 42.7109 142.633C43.0964 142.471 43.5365 142.391 44.0312 142.391C44.5469 142.391 45.0052 142.492 45.4062 142.695C45.8125 142.893 46.1536 143.182 46.4297 143.562C46.7109 143.938 46.9219 144.391 47.0625 144.922C47.2083 145.448 47.2812 146.039 47.2812 146.695ZM46.3438 146.859V146.695C46.3438 146.201 46.2917 145.742 46.1875 145.32C46.0885 144.898 45.9349 144.531 45.7266 144.219C45.5234 143.901 45.263 143.654 44.9453 143.477C44.6328 143.299 44.2604 143.211 43.8281 143.211C43.3802 143.211 42.9974 143.286 42.6797 143.438C42.3672 143.583 42.1068 143.779 41.8984 144.023C41.6901 144.263 41.526 144.526 41.4062 144.812C41.2865 145.099 41.1979 145.38 41.1406 145.656V148.148C41.2396 148.544 41.3984 148.911 41.6172 149.25C41.8359 149.583 42.1276 149.852 42.4922 150.055C42.862 150.253 43.3125 150.352 43.8438 150.352C44.2708 150.352 44.6406 150.263 44.9531 150.086C45.2656 149.909 45.5234 149.661 45.7266 149.344C45.9349 149.026 46.0885 148.656 46.1875 148.234C46.2917 147.812 46.3438 147.354 46.3438 146.859ZM52.5547 142.547V143.312H48.3203V142.547H52.5547ZM49.875 140.375H50.8047V148.945C50.8047 149.336 50.8568 149.63 50.9609 149.828C51.0651 150.026 51.2005 150.159 51.3672 150.227C51.5339 150.294 51.7135 150.328 51.9062 150.328C52.0469 150.328 52.1823 150.32 52.3125 150.305C52.4427 150.284 52.5599 150.263 52.6641 150.242L52.7031 151.031C52.5885 151.068 52.4401 151.096 52.2578 151.117C52.0755 151.143 51.8932 151.156 51.7109 151.156C51.3516 151.156 51.0339 151.091 50.7578 150.961C50.4818 150.826 50.2656 150.596 50.1094 150.273C49.9531 149.945 49.875 149.5 49.875 148.938V140.375ZM55.5547 142.547V151H54.625V142.547H55.5547ZM54.4609 140.102C54.4609 139.924 54.5156 139.776 54.625 139.656C54.7396 139.531 54.8958 139.469 55.0938 139.469C55.2917 139.469 55.4479 139.531 55.5625 139.656C55.6823 139.776 55.7422 139.924 55.7422 140.102C55.7422 140.273 55.6823 140.422 55.5625 140.547C55.4479 140.667 55.2917 140.727 55.0938 140.727C54.8958 140.727 54.7396 140.667 54.625 140.547C54.5156 140.422 54.4609 140.273 54.4609 140.102ZM58.9922 144.297V151H58.0547V142.547H58.9531L58.9922 144.297ZM58.8203 146.25L58.3672 146.016C58.3984 145.516 58.4922 145.047 58.6484 144.609C58.8099 144.172 59.0339 143.786 59.3203 143.453C59.6068 143.12 59.9505 142.859 60.3516 142.672C60.7526 142.484 61.2083 142.391 61.7188 142.391C62.1302 142.391 62.5026 142.448 62.8359 142.562C63.1745 142.672 63.4609 142.846 63.6953 143.086C63.9349 143.32 64.1198 143.628 64.25 144.008C64.3802 144.388 64.4453 144.844 64.4453 145.375V151H63.5156V145.406C63.5156 144.844 63.4271 144.404 63.25 144.086C63.0781 143.768 62.8359 143.542 62.5234 143.406C62.2161 143.271 61.8594 143.203 61.4531 143.203C60.974 143.203 60.5677 143.302 60.2344 143.5C59.9062 143.693 59.638 143.945 59.4297 144.258C59.2266 144.565 59.0755 144.896 58.9766 145.25C58.8776 145.599 58.8255 145.932 58.8203 146.25ZM64.4375 145.516L63.8125 145.531C63.8385 145.12 63.9323 144.727 64.0938 144.352C64.2604 143.977 64.487 143.643 64.7734 143.352C65.0599 143.055 65.401 142.82 65.7969 142.648C66.1979 142.477 66.6484 142.391 67.1484 142.391C67.5859 142.391 67.9766 142.451 68.3203 142.57C68.6641 142.685 68.9531 142.87 69.1875 143.125C69.4271 143.375 69.6094 143.695 69.7344 144.086C69.8594 144.477 69.9219 144.945 69.9219 145.492V151H68.9844V145.484C68.9844 144.885 68.8958 144.422 68.7188 144.094C68.5469 143.76 68.3073 143.529 68 143.398C67.6927 143.268 67.3333 143.203 66.9219 143.203C66.5156 143.208 66.1589 143.284 65.8516 143.43C65.5443 143.57 65.2865 143.758 65.0781 143.992C64.875 144.221 64.7188 144.469 64.6094 144.734C64.5052 145 64.4479 145.26 64.4375 145.516ZM73.3359 142.547V151H72.4062V142.547H73.3359ZM72.2422 140.102C72.2422 139.924 72.2969 139.776 72.4062 139.656C72.5208 139.531 72.6771 139.469 72.875 139.469C73.0729 139.469 73.2292 139.531 73.3438 139.656C73.4635 139.776 73.5234 139.924 73.5234 140.102C73.5234 140.273 73.4635 140.422 73.3438 140.547C73.2292 140.667 73.0729 140.727 72.875 140.727C72.6771 140.727 72.5208 140.667 72.4062 140.547C72.2969 140.422 72.2422 140.273 72.2422 140.102ZM81.9922 150.195V151H75.6875V150.195H81.9922ZM81.6484 143.242L75.9219 151H75.3516V150.297L81.0625 142.547H81.6484V143.242ZM81.2344 142.547V143.359H75.5078V142.547H81.2344ZM86.8281 151.156C86.276 151.156 85.7682 151.055 85.3047 150.852C84.8464 150.648 84.4453 150.362 84.1016 149.992C83.763 149.622 83.5 149.185 83.3125 148.68C83.1302 148.169 83.0391 147.612 83.0391 147.008V146.672C83.0391 146.021 83.1354 145.432 83.3281 144.906C83.5208 144.38 83.7865 143.93 84.125 143.555C84.4635 143.18 84.849 142.893 85.2812 142.695C85.7188 142.492 86.1771 142.391 86.6562 142.391C87.1927 142.391 87.6693 142.487 88.0859 142.68C88.5026 142.867 88.8516 143.135 89.1328 143.484C89.4193 143.828 89.6354 144.237 89.7812 144.711C89.9271 145.18 90 145.698 90 146.266V146.836H83.6016V146.039H89.0703V145.93C89.0599 145.456 88.9635 145.013 88.7812 144.602C88.6042 144.185 88.3385 143.846 87.9844 143.586C87.6302 143.326 87.1875 143.195 86.6562 143.195C86.2604 143.195 85.8958 143.279 85.5625 143.445C85.2344 143.612 84.9505 143.852 84.7109 144.164C84.4766 144.471 84.2943 144.839 84.1641 145.266C84.0391 145.688 83.9766 146.156 83.9766 146.672V147.008C83.9766 147.477 84.0443 147.914 84.1797 148.32C84.3203 148.721 84.5182 149.076 84.7734 149.383C85.0339 149.69 85.3411 149.93 85.6953 150.102C86.0495 150.273 86.4401 150.359 86.8672 150.359C87.3672 150.359 87.8099 150.268 88.1953 150.086C88.5807 149.898 88.9271 149.604 89.2344 149.203L89.8203 149.656C89.638 149.927 89.4089 150.177 89.1328 150.406C88.862 150.635 88.5365 150.818 88.1562 150.953C87.776 151.089 87.3333 151.156 86.8281 151.156ZM98.9453 142.547V143.312H94.7109V142.547H98.9453ZM96.2656 140.375H97.1953V148.945C97.1953 149.336 97.2474 149.63 97.3516 149.828C97.4557 150.026 97.5911 150.159 97.7578 150.227C97.9245 150.294 98.1042 150.328 98.2969 150.328C98.4375 150.328 98.5729 150.32 98.7031 150.305C98.8333 150.284 98.9505 150.263 99.0547 150.242L99.0938 151.031C98.9792 151.068 98.8307 151.096 98.6484 151.117C98.4661 151.143 98.2839 151.156 98.1016 151.156C97.7422 151.156 97.4245 151.091 97.1484 150.961C96.8724 150.826 96.6562 150.596 96.5 150.273C96.3438 149.945 96.2656 149.5 96.2656 148.938V140.375ZM101.836 139V151H100.906V139H101.836ZM101.625 146.25L101.211 146.016C101.242 145.516 101.344 145.047 101.516 144.609C101.688 144.172 101.919 143.786 102.211 143.453C102.508 143.12 102.854 142.859 103.25 142.672C103.651 142.484 104.094 142.391 104.578 142.391C105 142.391 105.378 142.448 105.711 142.562C106.044 142.677 106.328 142.859 106.562 143.109C106.797 143.359 106.974 143.68 107.094 144.07C107.219 144.461 107.281 144.938 107.281 145.5V151H106.344V145.492C106.344 144.909 106.263 144.453 106.102 144.125C105.94 143.792 105.711 143.555 105.414 143.414C105.117 143.273 104.766 143.203 104.359 143.203C103.911 143.203 103.518 143.302 103.18 143.5C102.846 143.693 102.565 143.945 102.336 144.258C102.112 144.565 101.94 144.896 101.82 145.25C101.701 145.599 101.635 145.932 101.625 146.25ZM112.953 151.156C112.401 151.156 111.893 151.055 111.43 150.852C110.971 150.648 110.57 150.362 110.227 149.992C109.888 149.622 109.625 149.185 109.438 148.68C109.255 148.169 109.164 147.612 109.164 147.008V146.672C109.164 146.021 109.26 145.432 109.453 144.906C109.646 144.38 109.911 143.93 110.25 143.555C110.589 143.18 110.974 142.893 111.406 142.695C111.844 142.492 112.302 142.391 112.781 142.391C113.318 142.391 113.794 142.487 114.211 142.68C114.628 142.867 114.977 143.135 115.258 143.484C115.544 143.828 115.76 144.237 115.906 144.711C116.052 145.18 116.125 145.698 116.125 146.266V146.836H109.727V146.039H115.195V145.93C115.185 145.456 115.089 145.013 114.906 144.602C114.729 144.185 114.464 143.846 114.109 143.586C113.755 143.326 113.312 143.195 112.781 143.195C112.385 143.195 112.021 143.279 111.688 143.445C111.359 143.612 111.076 143.852 110.836 144.164C110.602 144.471 110.419 144.839 110.289 145.266C110.164 145.688 110.102 146.156 110.102 146.672V147.008C110.102 147.477 110.169 147.914 110.305 148.32C110.445 148.721 110.643 149.076 110.898 149.383C111.159 149.69 111.466 149.93 111.82 150.102C112.174 150.273 112.565 150.359 112.992 150.359C113.492 150.359 113.935 150.268 114.32 150.086C114.706 149.898 115.052 149.604 115.359 149.203L115.945 149.656C115.763 149.927 115.534 150.177 115.258 150.406C114.987 150.635 114.661 150.818 114.281 150.953C113.901 151.089 113.458 151.156 112.953 151.156ZM118.852 144.297V151H117.914V142.547H118.812L118.852 144.297ZM118.68 146.25L118.227 146.016C118.258 145.516 118.352 145.047 118.508 144.609C118.669 144.172 118.893 143.786 119.18 143.453C119.466 143.12 119.81 142.859 120.211 142.672C120.612 142.484 121.068 142.391 121.578 142.391C121.99 142.391 122.362 142.448 122.695 142.562C123.034 142.672 123.32 142.846 123.555 143.086C123.794 143.32 123.979 143.628 124.109 144.008C124.24 144.388 124.305 144.844 124.305 145.375V151H123.375V145.406C123.375 144.844 123.286 144.404 123.109 144.086C122.938 143.768 122.695 143.542 122.383 143.406C122.076 143.271 121.719 143.203 121.312 143.203C120.833 143.203 120.427 143.302 120.094 143.5C119.766 143.693 119.497 143.945 119.289 144.258C119.086 144.565 118.935 144.896 118.836 145.25C118.737 145.599 118.685 145.932 118.68 146.25ZM124.297 145.516L123.672 145.531C123.698 145.12 123.792 144.727 123.953 144.352C124.12 143.977 124.346 143.643 124.633 143.352C124.919 143.055 125.26 142.82 125.656 142.648C126.057 142.477 126.508 142.391 127.008 142.391C127.445 142.391 127.836 142.451 128.18 142.57C128.523 142.685 128.812 142.87 129.047 143.125C129.286 143.375 129.469 143.695 129.594 144.086C129.719 144.477 129.781 144.945 129.781 145.492V151H128.844V145.484C128.844 144.885 128.755 144.422 128.578 144.094C128.406 143.76 128.167 143.529 127.859 143.398C127.552 143.268 127.193 143.203 126.781 143.203C126.375 143.208 126.018 143.284 125.711 143.43C125.404 143.57 125.146 143.758 124.938 143.992C124.734 144.221 124.578 144.469 124.469 144.734C124.365 145 124.307 145.26 124.297 145.516ZM139.18 150.352C139.576 150.352 139.945 150.279 140.289 150.133C140.638 149.982 140.924 149.76 141.148 149.469C141.378 149.172 141.508 148.81 141.539 148.383H142.43C142.404 148.919 142.24 149.398 141.938 149.82C141.641 150.237 141.25 150.565 140.766 150.805C140.286 151.039 139.758 151.156 139.18 151.156C138.591 151.156 138.07 151.049 137.617 150.836C137.169 150.622 136.794 150.326 136.492 149.945C136.19 149.56 135.961 149.112 135.805 148.602C135.654 148.086 135.578 147.531 135.578 146.938V146.609C135.578 146.016 135.654 145.464 135.805 144.953C135.961 144.438 136.19 143.99 136.492 143.609C136.794 143.224 137.169 142.924 137.617 142.711C138.065 142.497 138.583 142.391 139.172 142.391C139.776 142.391 140.318 142.513 140.797 142.758C141.281 143.003 141.667 143.349 141.953 143.797C142.245 144.245 142.404 144.776 142.43 145.391H141.539C141.513 144.938 141.393 144.547 141.18 144.219C140.966 143.891 140.685 143.638 140.336 143.461C139.987 143.284 139.599 143.195 139.172 143.195C138.693 143.195 138.284 143.289 137.945 143.477C137.607 143.659 137.331 143.911 137.117 144.234C136.909 144.552 136.755 144.917 136.656 145.328C136.557 145.734 136.508 146.161 136.508 146.609V146.938C136.508 147.391 136.555 147.823 136.648 148.234C136.747 148.641 136.901 149.003 137.109 149.32C137.323 149.638 137.599 149.891 137.938 150.078C138.281 150.26 138.695 150.352 139.18 150.352ZM143.797 146.906V146.648C143.797 146.034 143.885 145.466 144.062 144.945C144.24 144.424 144.492 143.974 144.82 143.594C145.154 143.214 145.552 142.919 146.016 142.711C146.479 142.497 146.995 142.391 147.562 142.391C148.135 142.391 148.654 142.497 149.117 142.711C149.581 142.919 149.979 143.214 150.312 143.594C150.646 143.974 150.901 144.424 151.078 144.945C151.255 145.466 151.344 146.034 151.344 146.648V146.906C151.344 147.521 151.255 148.089 151.078 148.609C150.901 149.125 150.646 149.573 150.312 149.953C149.984 150.333 149.589 150.63 149.125 150.844C148.661 151.052 148.146 151.156 147.578 151.156C147.005 151.156 146.487 151.052 146.023 150.844C145.56 150.63 145.161 150.333 144.828 149.953C144.495 149.573 144.24 149.125 144.062 148.609C143.885 148.089 143.797 147.521 143.797 146.906ZM144.727 146.648V146.906C144.727 147.37 144.789 147.81 144.914 148.227C145.039 148.638 145.221 149.005 145.461 149.328C145.701 149.646 145.997 149.896 146.352 150.078C146.706 150.26 147.115 150.352 147.578 150.352C148.036 150.352 148.44 150.26 148.789 150.078C149.143 149.896 149.44 149.646 149.68 149.328C149.919 149.005 150.099 148.638 150.219 148.227C150.344 147.81 150.406 147.37 150.406 146.906V146.648C150.406 146.19 150.344 145.755 150.219 145.344C150.099 144.932 149.917 144.565 149.672 144.242C149.432 143.919 149.135 143.664 148.781 143.477C148.427 143.289 148.021 143.195 147.562 143.195C147.104 143.195 146.698 143.289 146.344 143.477C145.995 143.664 145.698 143.919 145.453 144.242C145.214 144.565 145.031 144.932 144.906 145.344C144.786 145.755 144.727 146.19 144.727 146.648ZM154.211 143.945V151H153.281V142.547H154.188L154.211 143.945ZM157.203 142.484L157.18 143.344C157.076 143.328 156.974 143.315 156.875 143.305C156.776 143.294 156.669 143.289 156.555 143.289C156.148 143.289 155.792 143.365 155.484 143.516C155.182 143.661 154.927 143.867 154.719 144.133C154.51 144.393 154.352 144.701 154.242 145.055C154.133 145.404 154.07 145.779 154.055 146.18L153.711 146.312C153.711 145.76 153.768 145.247 153.883 144.773C153.997 144.299 154.172 143.885 154.406 143.531C154.646 143.172 154.945 142.893 155.305 142.695C155.669 142.492 156.096 142.391 156.586 142.391C156.706 142.391 156.823 142.401 156.938 142.422C157.057 142.438 157.146 142.458 157.203 142.484ZM159.602 143.945V151H158.672V142.547H159.578L159.602 143.945ZM162.594 142.484L162.57 143.344C162.466 143.328 162.365 143.315 162.266 143.305C162.167 143.294 162.06 143.289 161.945 143.289C161.539 143.289 161.182 143.365 160.875 143.516C160.573 143.661 160.318 143.867 160.109 144.133C159.901 144.393 159.742 144.701 159.633 145.055C159.523 145.404 159.461 145.779 159.445 146.18L159.102 146.312C159.102 145.76 159.159 145.247 159.273 144.773C159.388 144.299 159.562 143.885 159.797 143.531C160.036 143.172 160.336 142.893 160.695 142.695C161.06 142.492 161.487 142.391 161.977 142.391C162.096 142.391 162.214 142.401 162.328 142.422C162.448 142.438 162.536 142.458 162.594 142.484ZM167.172 151.156C166.62 151.156 166.112 151.055 165.648 150.852C165.19 150.648 164.789 150.362 164.445 149.992C164.107 149.622 163.844 149.185 163.656 148.68C163.474 148.169 163.383 147.612 163.383 147.008V146.672C163.383 146.021 163.479 145.432 163.672 144.906C163.865 144.38 164.13 143.93 164.469 143.555C164.807 143.18 165.193 142.893 165.625 142.695C166.062 142.492 166.521 142.391 167 142.391C167.536 142.391 168.013 142.487 168.43 142.68C168.846 142.867 169.195 143.135 169.477 143.484C169.763 143.828 169.979 144.237 170.125 144.711C170.271 145.18 170.344 145.698 170.344 146.266V146.836H163.945V146.039H169.414V145.93C169.404 145.456 169.307 145.013 169.125 144.602C168.948 144.185 168.682 143.846 168.328 143.586C167.974 143.326 167.531 143.195 167 143.195C166.604 143.195 166.24 143.279 165.906 143.445C165.578 143.612 165.294 143.852 165.055 144.164C164.82 144.471 164.638 144.839 164.508 145.266C164.383 145.688 164.32 146.156 164.32 146.672V147.008C164.32 147.477 164.388 147.914 164.523 148.32C164.664 148.721 164.862 149.076 165.117 149.383C165.378 149.69 165.685 149.93 166.039 150.102C166.393 150.273 166.784 150.359 167.211 150.359C167.711 150.359 168.154 150.268 168.539 150.086C168.924 149.898 169.271 149.604 169.578 149.203L170.164 149.656C169.982 149.927 169.753 150.177 169.477 150.406C169.206 150.635 168.88 150.818 168.5 150.953C168.12 151.089 167.677 151.156 167.172 151.156ZM175.305 150.352C175.701 150.352 176.07 150.279 176.414 150.133C176.763 149.982 177.049 149.76 177.273 149.469C177.503 149.172 177.633 148.81 177.664 148.383H178.555C178.529 148.919 178.365 149.398 178.062 149.82C177.766 150.237 177.375 150.565 176.891 150.805C176.411 151.039 175.883 151.156 175.305 151.156C174.716 151.156 174.195 151.049 173.742 150.836C173.294 150.622 172.919 150.326 172.617 149.945C172.315 149.56 172.086 149.112 171.93 148.602C171.779 148.086 171.703 147.531 171.703 146.938V146.609C171.703 146.016 171.779 145.464 171.93 144.953C172.086 144.438 172.315 143.99 172.617 143.609C172.919 143.224 173.294 142.924 173.742 142.711C174.19 142.497 174.708 142.391 175.297 142.391C175.901 142.391 176.443 142.513 176.922 142.758C177.406 143.003 177.792 143.349 178.078 143.797C178.37 144.245 178.529 144.776 178.555 145.391H177.664C177.638 144.938 177.518 144.547 177.305 144.219C177.091 143.891 176.81 143.638 176.461 143.461C176.112 143.284 175.724 143.195 175.297 143.195C174.818 143.195 174.409 143.289 174.07 143.477C173.732 143.659 173.456 143.911 173.242 144.234C173.034 144.552 172.88 144.917 172.781 145.328C172.682 145.734 172.633 146.161 172.633 146.609V146.938C172.633 147.391 172.68 147.823 172.773 148.234C172.872 148.641 173.026 149.003 173.234 149.32C173.448 149.638 173.724 149.891 174.062 150.078C174.406 150.26 174.82 150.352 175.305 150.352ZM183.633 142.547V143.312H179.398V142.547H183.633ZM180.953 140.375H181.883V148.945C181.883 149.336 181.935 149.63 182.039 149.828C182.143 150.026 182.279 150.159 182.445 150.227C182.612 150.294 182.792 150.328 182.984 150.328C183.125 150.328 183.26 150.32 183.391 150.305C183.521 150.284 183.638 150.263 183.742 150.242L183.781 151.031C183.667 151.068 183.518 151.096 183.336 151.117C183.154 151.143 182.971 151.156 182.789 151.156C182.43 151.156 182.112 151.091 181.836 150.961C181.56 150.826 181.344 150.596 181.188 150.273C181.031 149.945 180.953 149.5 180.953 148.938V140.375ZM186.633 139V151H185.703V139H186.633ZM191.695 150.156L194.328 142.547H195.336L191.758 152.359C191.685 152.552 191.591 152.766 191.477 153C191.367 153.234 191.221 153.458 191.039 153.672C190.862 153.891 190.638 154.068 190.367 154.203C190.102 154.344 189.776 154.414 189.391 154.414C189.292 154.414 189.164 154.401 189.008 154.375C188.857 154.354 188.747 154.333 188.68 154.312L188.672 153.523C188.729 153.539 188.812 153.552 188.922 153.562C189.031 153.573 189.107 153.578 189.148 153.578C189.487 153.578 189.771 153.521 190 153.406C190.234 153.292 190.43 153.12 190.586 152.891C190.742 152.667 190.88 152.385 191 152.047L191.695 150.156ZM189.234 142.547L191.93 149.805L192.18 150.781L191.5 151.164L188.219 142.547H189.234Z" fill="#EFEFEF"/>
<path fill-rule="evenodd" clip-rule="evenodd" d="M112.486 1.01126C144.242 1.01126 169.986 26.7545 169.986 58.5108C169.986 90.2673 144.242 116.011 112.486 116.011C80.7296 116.011 54.9859 90.2673 54.9859 58.5108C54.9859 26.7545 80.7296 1.01126 112.486 1.01126Z" fill="#F9BF3B"/>
<g clip-path="url(#clip0_235903_179)">
<path d="M82 80.9884H142V35.0002H82V80.9884Z" fill="#A3A3A3"/>
<path d="M140.807 79.8231H83.0425V36.1675H140.807V79.8231Z" fill="#AFAFAF"/>
<path d="M138.754 76.8821H84.7778V44.3499H138.754V76.8821Z" fill="#CFD8E5"/>
<path d="M137.966 76.0844H85.4088V45.1497H137.966V76.0844Z" fill="#E2E9F2"/>
<path d="M138.755 40.1594C138.755 41.8366 137.395 43.195 135.717 43.195C134.042 43.195 132.681 41.8366 132.681 40.1594C132.681 38.4822 134.042 37.1228 135.717 37.1228C137.395 37.1228 138.755 38.4822 138.755 40.1594Z" fill="#A3A3A3"/>
<path d="M138.325 40.1594C138.325 41.5994 137.158 42.7666 135.717 42.7666C134.277 42.7666 133.11 41.5994 133.11 40.1594C133.11 38.7194 134.277 37.5513 135.717 37.5513C137.158 37.5513 138.325 38.7194 138.325 40.1594Z" fill="#FF7031"/>
<path d="M130.864 40.1594C130.864 41.8366 129.503 43.195 127.827 43.195C126.15 43.195 124.789 41.8366 124.789 40.1594C124.789 38.4822 126.15 37.1228 127.827 37.1228C129.503 37.1228 130.864 38.4822 130.864 40.1594Z" fill="#A3A3A3"/>
<path d="M130.435 40.1594C130.435 41.5994 129.266 42.7666 127.827 42.7666C126.387 42.7666 125.22 41.5994 125.22 40.1594C125.22 38.7194 126.387 37.5513 127.827 37.5513C129.266 37.5513 130.435 38.7194 130.435 40.1594Z" fill="#E2E9F2"/>
<path d="M122.859 40.1594C122.859 41.8366 121.498 43.195 119.823 43.195C118.145 43.195 116.785 41.8366 116.785 40.1594C116.785 38.4822 118.145 37.1228 119.823 37.1228C121.498 37.1228 122.859 38.4822 122.859 40.1594Z" fill="#A3A3A3"/>
<path d="M122.43 40.1594C122.43 41.5994 121.262 42.7666 119.823 42.7666C118.382 42.7666 117.214 41.5994 117.214 40.1594C117.214 38.7194 118.382 37.5513 119.823 37.5513C121.262 37.5513 122.43 38.7194 122.43 40.1594Z" fill="#E2E9F2"/>
<path d="M82 80.9884H142V35.0002H82V80.9884Z" fill="url(#paint0_linear_235903_179)"/>
<path d="M87.701 35L121.561 80.9882H135.673L101.813 35H87.701Z" fill="white" fill-opacity="0.203922"/>
<path d="M108.695 35L142 80.2353V70.6512L115.752 35H108.695Z" fill="white" fill-opacity="0.203922"/>
<path d="M107.628 54.5695H114.45V47.7463H107.628V54.5695Z" fill="url(#paint1_linear_235903_179)"/>
<path d="M107.628 83.9086H114.45V77.0845H107.628V83.9086Z" fill="url(#paint2_linear_235903_179)"/>
<path d="M122.149 69.2387H128.972V62.4155H122.149V69.2387Z" fill="url(#paint3_linear_235903_179)"/>
<path d="M92.8104 69.2387H99.6344V62.4155H92.8104V69.2387Z" fill="url(#paint4_linear_235903_179)"/>
<path d="M116.49 55.5577L121.315 60.3821L126.142 55.5577L121.316 50.7324L116.49 55.5577Z" fill="url(#paint5_linear_235903_179)"/>
<path d="M95.7456 76.3038L100.571 81.13L105.395 76.3038L100.571 71.4775L95.7456 76.3038Z" fill="url(#paint6_linear_235903_179)"/>
<path d="M116.388 76.2005L121.213 81.024L126.039 76.2005L121.213 71.3743L116.388 76.2005Z" fill="url(#paint7_linear_235903_179)"/>
<path d="M95.6415 55.4545L100.467 60.2788L105.291 55.4545L100.467 50.6292L95.6415 55.4545Z" fill="url(#paint8_linear_235903_179)"/>
<path d="M96.2209 65.8261C96.2209 73.9289 102.79 80.4971 110.892 80.4971C118.994 80.4971 125.562 73.9289 125.562 65.8261C125.562 57.7252 118.994 51.158 110.892 51.158C102.79 51.158 96.2209 57.7252 96.2209 65.8261ZM103.212 65.6798C103.212 61.4386 106.65 58.0008 110.892 58.0008C115.134 58.0008 118.572 61.4386 118.572 65.6798C118.572 69.9221 115.134 73.3598 110.892 73.3598C106.65 73.3598 103.212 69.9221 103.212 65.6798Z" fill="url(#paint9_linear_235903_179)"/>
<path d="M101.435 65.8262C101.435 71.049 105.67 75.2828 110.892 75.2828C116.114 75.2828 120.348 71.049 120.348 65.8262C120.348 60.6053 116.114 56.3716 110.892 56.3716C105.67 56.3716 101.435 60.6053 101.435 65.8262ZM103.358 65.8262C103.358 61.585 106.797 58.1472 111.038 58.1472C115.279 58.1472 118.718 61.585 118.718 65.8262C118.718 70.0685 115.279 73.5063 111.038 73.5063C106.797 73.5063 103.358 70.0685 103.358 65.8262Z" fill="url(#paint10_linear_235903_179)"/>
<path d="M108.287 65.828C108.287 67.3458 109.519 68.5786 111.038 68.5786C112.557 68.5786 113.789 67.3458 113.789 65.828C113.789 64.3073 112.557 63.0754 111.038 63.0754C109.519 63.0754 108.287 64.3073 108.287 65.828Z" fill="url(#paint11_linear_235903_179)"/>
<path d="M109.835 65.4371C109.835 64.509 110.585 63.7581 111.512 63.7581C112.439 63.7581 113.192 64.509 113.192 65.4371C113.192 66.3615 112.439 67.1153 111.512 67.1153C110.585 67.1153 109.835 66.3615 109.835 65.4371Z" fill="url(#paint12_linear_235903_179)"/>
</g>
<defs>
<linearGradient id="paint0_linear_235903_179" x1="111.995" y1="124.841" x2="111.995" y2="36.3001" gradientUnits="userSpaceOnUse">
<stop stop-color="white" stop-opacity="0.101961"/>
<stop offset="0.13" stop-color="white" stop-opacity="0.0784314"/>
<stop offset="1" stop-color="white" stop-opacity="0.0509804"/>
</linearGradient>
<linearGradient id="paint1_linear_235903_179" x1="111.038" y1="54.9181" x2="111.038" y2="45.2813" gradientUnits="userSpaceOnUse">
<stop stop-color="#8BC6FF"/>
<stop offset="1" stop-color="#008BFF"/>
</linearGradient>
<linearGradient id="paint2_linear_235903_179" x1="111.038" y1="85.8232" x2="111.038" y2="72.1744" gradientUnits="userSpaceOnUse">
<stop stop-color="#8BC6FF"/>
<stop offset="1" stop-color="#008BFF"/>
</linearGradient>
<linearGradient id="paint3_linear_235903_179" x1="112.786" y1="65.8281" x2="130.869" y2="65.8281" gradientUnits="userSpaceOnUse">
<stop stop-color="#8BC6FF"/>
<stop offset="1" stop-color="#008BFF"/>
</linearGradient>
<linearGradient id="paint4_linear_235903_179" x1="92.2576" y1="65.8272" x2="125.388" y2="65.8272" gradientUnits="userSpaceOnUse">
<stop stop-color="#8BC6FF"/>
<stop offset="1" stop-color="#008BFF"/>
</linearGradient>
<linearGradient id="paint5_linear_235903_179" x1="127.504" y1="28.8067" x2="136.133" y2="20.175" gradientUnits="userSpaceOnUse">
<stop stop-color="#8BC6FF"/>
<stop offset="1" stop-color="#008BFF"/>
</linearGradient>
<linearGradient id="paint6_linear_235903_179" x1="127.752" y1="53.3876" x2="145.131" y2="36.0138" gradientUnits="userSpaceOnUse">
<stop stop-color="#8BC6FF"/>
<stop offset="1" stop-color="#008BFF"/>
</linearGradient>
<linearGradient id="paint7_linear_235903_179" x1="76.2275" y1="71.7725" x2="94.0288" y2="89.5773" gradientUnits="userSpaceOnUse">
<stop stop-color="#8BC6FF"/>
<stop offset="1" stop-color="#008BFF"/>
</linearGradient>
<linearGradient id="paint8_linear_235903_179" x1="97.5928" y1="52.5776" x2="118.655" y2="73.6394" gradientUnits="userSpaceOnUse">
<stop stop-color="#8BC6FF"/>
<stop offset="1" stop-color="#008BFF"/>
</linearGradient>
<linearGradient id="paint9_linear_235903_179" x1="96.2218" y1="65.8272" x2="125.562" y2="65.8272" gradientUnits="userSpaceOnUse">
<stop stop-color="#8BC6FF"/>
<stop offset="1" stop-color="#008BFF"/>
</linearGradient>
<linearGradient id="paint10_linear_235903_179" x1="118.599" y1="73.3099" x2="100.397" y2="55.6357" gradientUnits="userSpaceOnUse">
<stop stop-color="#8BC6FF"/>
<stop offset="1" stop-color="#0079FF"/>
</linearGradient>
<linearGradient id="paint11_linear_235903_179" x1="114.029" y1="62.7454" x2="106.362" y2="70.6398" gradientUnits="userSpaceOnUse">
<stop stop-color="#8BC6FF"/>
<stop offset="1" stop-color="#0079FF"/>
</linearGradient>
<linearGradient id="paint12_linear_235903_179" x1="109.835" y1="65.4372" x2="113.192" y2="65.4372" gradientUnits="userSpaceOnUse">
<stop stop-color="#8BC6FF" stop-opacity="0.301961"/>
<stop offset="1" stop-color="#8FD4FF" stop-opacity="0.301961"/>
</linearGradient>
<clipPath id="clip0_235903_179">
<rect width="60" height="48.9087" fill="white" transform="translate(82 35)"/>
</clipPath>
</defs>
</svg>
