<svg width="224" height="174" viewBox="0 0 224 174" fill="none" xmlns="http://www.w3.org/2000/svg">
<path d="M20.6875 140.305L16.75 151H15.75L20.0469 139.625H20.7422L20.6875 140.305ZM24.2656 151L20.3203 140.305L20.2656 139.625H20.9609L25.2656 151H24.2656ZM23.5625 146.984V147.812H17.5234V146.984H23.5625ZM29.8516 150.352C30.2474 150.352 30.6172 150.279 30.9609 150.133C31.3099 149.982 31.5964 149.76 31.8203 149.469C32.0495 149.172 32.1797 148.81 32.2109 148.383H33.1016C33.0755 148.919 32.9115 149.398 32.6094 149.82C32.3125 150.237 31.9219 150.565 31.4375 150.805C30.9583 151.039 30.4297 151.156 29.8516 151.156C29.263 151.156 28.7422 151.049 28.2891 150.836C27.8411 150.622 27.4661 150.326 27.1641 149.945C26.862 149.56 26.6328 149.112 26.4766 148.602C26.3255 148.086 26.25 147.531 26.25 146.938V146.609C26.25 146.016 26.3255 145.464 26.4766 144.953C26.6328 144.438 26.862 143.99 27.1641 143.609C27.4661 143.224 27.8411 142.924 28.2891 142.711C28.737 142.497 29.2552 142.391 29.8438 142.391C30.4479 142.391 30.9896 142.513 31.4688 142.758C31.9531 143.003 32.3385 143.349 32.625 143.797C32.9167 144.245 33.0755 144.776 33.1016 145.391H32.2109C32.1849 144.938 32.0651 144.547 31.8516 144.219C31.638 143.891 31.3568 143.638 31.0078 143.461C30.6589 143.284 30.2708 143.195 29.8438 143.195C29.3646 143.195 28.9557 143.289 28.6172 143.477C28.2786 143.659 28.0026 143.911 27.7891 144.234C27.5807 144.552 27.4271 144.917 27.3281 145.328C27.2292 145.734 27.1797 146.161 27.1797 146.609V146.938C27.1797 147.391 27.2266 147.823 27.3203 148.234C27.4193 148.641 27.5729 149.003 27.7812 149.32C27.9948 149.638 28.2708 149.891 28.6094 150.078C28.9531 150.26 29.3672 150.352 29.8516 150.352ZM35.9141 139V151H34.9844V139H35.9141ZM35.7031 146.25L35.2891 146.016C35.3203 145.516 35.4219 145.047 35.5938 144.609C35.7656 144.172 35.9974 143.786 36.2891 143.453C36.5859 143.12 36.9323 142.859 37.3281 142.672C37.7292 142.484 38.1719 142.391 38.6562 142.391C39.0781 142.391 39.4557 142.448 39.7891 142.562C40.1224 142.677 40.4062 142.859 40.6406 143.109C40.875 143.359 41.0521 143.68 41.1719 144.07C41.2969 144.461 41.3594 144.938 41.3594 145.5V151H40.4219V145.492C40.4219 144.909 40.3411 144.453 40.1797 144.125C40.0182 143.792 39.7891 143.555 39.4922 143.414C39.1953 143.273 38.8438 143.203 38.4375 143.203C37.9896 143.203 37.5964 143.302 37.2578 143.5C36.9245 143.693 36.6432 143.945 36.4141 144.258C36.1901 144.565 36.0182 144.896 35.8984 145.25C35.7786 145.599 35.7135 145.932 35.7031 146.25ZM44.8047 142.547V151H43.875V142.547H44.8047ZM43.7109 140.102C43.7109 139.924 43.7656 139.776 43.875 139.656C43.9896 139.531 44.1458 139.469 44.3438 139.469C44.5417 139.469 44.6979 139.531 44.8125 139.656C44.9323 139.776 44.9922 139.924 44.9922 140.102C44.9922 140.273 44.9323 140.422 44.8125 140.547C44.6979 140.667 44.5417 140.727 44.3438 140.727C44.1458 140.727 43.9896 140.667 43.875 140.547C43.7656 140.422 43.7109 140.273 43.7109 140.102ZM50.625 151.156C50.0729 151.156 49.5651 151.055 49.1016 150.852C48.6432 150.648 48.2422 150.362 47.8984 149.992C47.5599 149.622 47.2969 149.185 47.1094 148.68C46.9271 148.169 46.8359 147.612 46.8359 147.008V146.672C46.8359 146.021 46.9323 145.432 47.125 144.906C47.3177 144.38 47.5833 143.93 47.9219 143.555C48.2604 143.18 48.6458 142.893 49.0781 142.695C49.5156 142.492 49.974 142.391 50.4531 142.391C50.9896 142.391 51.4661 142.487 51.8828 142.68C52.2995 142.867 52.6484 143.135 52.9297 143.484C53.2161 143.828 53.4323 144.237 53.5781 144.711C53.724 145.18 53.7969 145.698 53.7969 146.266V146.836H47.3984V146.039H52.8672V145.93C52.8568 145.456 52.7604 145.013 52.5781 144.602C52.401 144.185 52.1354 143.846 51.7812 143.586C51.4271 143.326 50.9844 143.195 50.4531 143.195C50.0573 143.195 49.6927 143.279 49.3594 143.445C49.0312 143.612 48.7474 143.852 48.5078 144.164C48.2734 144.471 48.0911 144.839 47.9609 145.266C47.8359 145.688 47.7734 146.156 47.7734 146.672V147.008C47.7734 147.477 47.8411 147.914 47.9766 148.32C48.1172 148.721 48.3151 149.076 48.5703 149.383C48.8307 149.69 49.138 149.93 49.4922 150.102C49.8464 150.273 50.237 150.359 50.6641 150.359C51.1641 150.359 51.6068 150.268 51.9922 150.086C52.3776 149.898 52.724 149.604 53.0312 149.203L53.6172 149.656C53.4349 149.927 53.2057 150.177 52.9297 150.406C52.6589 150.635 52.3333 150.818 51.9531 150.953C51.5729 151.089 51.1302 151.156 50.625 151.156ZM58.0234 150.102L60.7344 142.547H61.6953L58.5312 151H57.8516L58.0234 150.102ZM55.5703 142.547L58.3125 150.125L58.4609 151H57.7734L54.6016 142.547H55.5703ZM66.3906 151.156C65.8385 151.156 65.3307 151.055 64.8672 150.852C64.4089 150.648 64.0078 150.362 63.6641 149.992C63.3255 149.622 63.0625 149.185 62.875 148.68C62.6927 148.169 62.6016 147.612 62.6016 147.008V146.672C62.6016 146.021 62.6979 145.432 62.8906 144.906C63.0833 144.38 63.349 143.93 63.6875 143.555C64.026 143.18 64.4115 142.893 64.8438 142.695C65.2812 142.492 65.7396 142.391 66.2188 142.391C66.7552 142.391 67.2318 142.487 67.6484 142.68C68.0651 142.867 68.4141 143.135 68.6953 143.484C68.9818 143.828 69.1979 144.237 69.3438 144.711C69.4896 145.18 69.5625 145.698 69.5625 146.266V146.836H63.1641V146.039H68.6328V145.93C68.6224 145.456 68.526 145.013 68.3438 144.602C68.1667 144.185 67.901 143.846 67.5469 143.586C67.1927 143.326 66.75 143.195 66.2188 143.195C65.8229 143.195 65.4583 143.279 65.125 143.445C64.7969 143.612 64.513 143.852 64.2734 144.164C64.0391 144.471 63.8568 144.839 63.7266 145.266C63.6016 145.688 63.5391 146.156 63.5391 146.672V147.008C63.5391 147.477 63.6068 147.914 63.7422 148.32C63.8828 148.721 64.0807 149.076 64.3359 149.383C64.5964 149.69 64.9036 149.93 65.2578 150.102C65.612 150.273 66.0026 150.359 66.4297 150.359C66.9297 150.359 67.3724 150.268 67.7578 150.086C68.1432 149.898 68.4896 149.604 68.7969 149.203L69.3828 149.656C69.2005 149.927 68.9714 150.177 68.6953 150.406C68.4245 150.635 68.099 150.818 67.7188 150.953C67.3385 151.089 66.8958 151.156 66.3906 151.156ZM80.4531 149.484V145.125C80.4531 144.724 80.3698 144.378 80.2031 144.086C80.0365 143.794 79.7917 143.57 79.4688 143.414C79.1458 143.258 78.7474 143.18 78.2734 143.18C77.8359 143.18 77.4453 143.258 77.1016 143.414C76.763 143.565 76.4948 143.771 76.2969 144.031C76.1042 144.286 76.0078 144.57 76.0078 144.883L75.0703 144.875C75.0703 144.557 75.1484 144.25 75.3047 143.953C75.4609 143.656 75.6823 143.391 75.9688 143.156C76.2552 142.922 76.5964 142.737 76.9922 142.602C77.3932 142.461 77.8333 142.391 78.3125 142.391C78.9167 142.391 79.4479 142.492 79.9062 142.695C80.3698 142.898 80.7318 143.203 80.9922 143.609C81.2526 144.016 81.3828 144.526 81.3828 145.141V149.227C81.3828 149.518 81.4036 149.82 81.4453 150.133C81.4922 150.445 81.5573 150.703 81.6406 150.906V151H80.6484C80.5859 150.812 80.5365 150.578 80.5 150.297C80.4688 150.01 80.4531 149.74 80.4531 149.484ZM80.6719 146.078L80.6875 146.797H78.8516C78.3724 146.797 77.9427 146.841 77.5625 146.93C77.1875 147.013 76.8698 147.138 76.6094 147.305C76.349 147.466 76.1484 147.661 76.0078 147.891C75.8724 148.12 75.8047 148.38 75.8047 148.672C75.8047 148.974 75.8802 149.25 76.0312 149.5C76.1875 149.75 76.4062 149.951 76.6875 150.102C76.974 150.247 77.3125 150.32 77.7031 150.32C78.224 150.32 78.6823 150.224 79.0781 150.031C79.4792 149.839 79.8099 149.586 80.0703 149.273C80.3307 148.961 80.5052 148.62 80.5938 148.25L81 148.789C80.9323 149.049 80.8073 149.318 80.625 149.594C80.4479 149.865 80.2161 150.12 79.9297 150.359C79.6432 150.594 79.3047 150.786 78.9141 150.938C78.5286 151.083 78.0911 151.156 77.6016 151.156C77.0495 151.156 76.5677 151.052 76.1562 150.844C75.75 150.635 75.4323 150.352 75.2031 149.992C74.9792 149.628 74.8672 149.216 74.8672 148.758C74.8672 148.341 74.9557 147.969 75.1328 147.641C75.3099 147.307 75.5651 147.026 75.8984 146.797C76.237 146.562 76.6432 146.385 77.1172 146.266C77.5964 146.141 78.1328 146.078 78.7266 146.078H80.6719ZM92.8594 148.844C92.8594 148.615 92.8021 148.388 92.6875 148.164C92.5729 147.94 92.3516 147.734 92.0234 147.547C91.7005 147.359 91.224 147.201 90.5938 147.07C90.125 146.966 89.7057 146.849 89.3359 146.719C88.9714 146.589 88.6641 146.432 88.4141 146.25C88.1641 146.068 87.974 145.849 87.8438 145.594C87.7135 145.339 87.6484 145.036 87.6484 144.688C87.6484 144.375 87.7161 144.081 87.8516 143.805C87.9922 143.523 88.1901 143.279 88.4453 143.07C88.7057 142.857 89.0182 142.69 89.3828 142.57C89.7526 142.451 90.1667 142.391 90.625 142.391C91.276 142.391 91.8333 142.503 92.2969 142.727C92.7656 142.945 93.1224 143.245 93.3672 143.625C93.6172 144.005 93.7422 144.435 93.7422 144.914H92.8125C92.8125 144.622 92.7266 144.346 92.5547 144.086C92.388 143.826 92.1406 143.612 91.8125 143.445C91.4896 143.279 91.0938 143.195 90.625 143.195C90.1406 143.195 89.7474 143.268 89.4453 143.414C89.1432 143.56 88.9219 143.745 88.7812 143.969C88.6458 144.193 88.5781 144.424 88.5781 144.664C88.5781 144.852 88.6068 145.023 88.6641 145.18C88.7266 145.331 88.8359 145.471 88.9922 145.602C89.1536 145.732 89.3828 145.854 89.6797 145.969C89.9766 146.083 90.362 146.195 90.8359 146.305C91.5182 146.456 92.0755 146.641 92.5078 146.859C92.9453 147.073 93.2682 147.339 93.4766 147.656C93.6849 147.969 93.7891 148.349 93.7891 148.797C93.7891 149.146 93.7161 149.466 93.5703 149.758C93.4245 150.044 93.2135 150.292 92.9375 150.5C92.6667 150.708 92.3385 150.87 91.9531 150.984C91.5729 151.099 91.1458 151.156 90.6719 151.156C89.9583 151.156 89.3542 151.039 88.8594 150.805C88.3698 150.565 87.9974 150.253 87.7422 149.867C87.4922 149.477 87.3672 149.062 87.3672 148.625H88.2969C88.3281 149.062 88.4661 149.409 88.7109 149.664C88.9557 149.914 89.2552 150.091 89.6094 150.195C89.9688 150.299 90.3229 150.352 90.6719 150.352C91.151 150.352 91.5521 150.281 91.875 150.141C92.1979 150 92.4427 149.815 92.6094 149.586C92.776 149.357 92.8594 149.109 92.8594 148.844ZM99.1016 142.547V143.312H94.8672V142.547H99.1016ZM96.4219 140.375H97.3516V148.945C97.3516 149.336 97.4036 149.63 97.5078 149.828C97.612 150.026 97.7474 150.159 97.9141 150.227C98.0807 150.294 98.2604 150.328 98.4531 150.328C98.5938 150.328 98.7292 150.32 98.8594 150.305C98.9896 150.284 99.1068 150.263 99.2109 150.242L99.25 151.031C99.1354 151.068 98.987 151.096 98.8047 151.117C98.6224 151.143 98.4401 151.156 98.2578 151.156C97.8984 151.156 97.5807 151.091 97.3047 150.961C97.0286 150.826 96.8125 150.596 96.6562 150.273C96.5 149.945 96.4219 149.5 96.4219 148.938V140.375ZM106.203 149.484V145.125C106.203 144.724 106.12 144.378 105.953 144.086C105.786 143.794 105.542 143.57 105.219 143.414C104.896 143.258 104.497 143.18 104.023 143.18C103.586 143.18 103.195 143.258 102.852 143.414C102.513 143.565 102.245 143.771 102.047 144.031C101.854 144.286 101.758 144.57 101.758 144.883L100.82 144.875C100.82 144.557 100.898 144.25 101.055 143.953C101.211 143.656 101.432 143.391 101.719 143.156C102.005 142.922 102.346 142.737 102.742 142.602C103.143 142.461 103.583 142.391 104.062 142.391C104.667 142.391 105.198 142.492 105.656 142.695C106.12 142.898 106.482 143.203 106.742 143.609C107.003 144.016 107.133 144.526 107.133 145.141V149.227C107.133 149.518 107.154 149.82 107.195 150.133C107.242 150.445 107.307 150.703 107.391 150.906V151H106.398C106.336 150.812 106.286 150.578 106.25 150.297C106.219 150.01 106.203 149.74 106.203 149.484ZM106.422 146.078L106.438 146.797H104.602C104.122 146.797 103.693 146.841 103.312 146.93C102.938 147.013 102.62 147.138 102.359 147.305C102.099 147.466 101.898 147.661 101.758 147.891C101.622 148.12 101.555 148.38 101.555 148.672C101.555 148.974 101.63 149.25 101.781 149.5C101.938 149.75 102.156 149.951 102.438 150.102C102.724 150.247 103.062 150.32 103.453 150.32C103.974 150.32 104.432 150.224 104.828 150.031C105.229 149.839 105.56 149.586 105.82 149.273C106.081 148.961 106.255 148.62 106.344 148.25L106.75 148.789C106.682 149.049 106.557 149.318 106.375 149.594C106.198 149.865 105.966 150.12 105.68 150.359C105.393 150.594 105.055 150.786 104.664 150.938C104.279 151.083 103.841 151.156 103.352 151.156C102.799 151.156 102.318 151.052 101.906 150.844C101.5 150.635 101.182 150.352 100.953 149.992C100.729 149.628 100.617 149.216 100.617 148.758C100.617 148.341 100.706 147.969 100.883 147.641C101.06 147.307 101.315 147.026 101.648 146.797C101.987 146.562 102.393 146.385 102.867 146.266C103.346 146.141 103.883 146.078 104.477 146.078H106.422ZM109.625 139H110.562V149.359L110.5 151H109.625V139ZM116.445 146.695V146.859C116.445 147.49 116.372 148.068 116.227 148.594C116.081 149.12 115.87 149.576 115.594 149.961C115.318 150.341 114.979 150.635 114.578 150.844C114.182 151.052 113.727 151.156 113.211 151.156C112.706 151.156 112.258 151.078 111.867 150.922C111.477 150.76 111.143 150.534 110.867 150.242C110.591 149.945 110.37 149.599 110.203 149.203C110.036 148.802 109.919 148.362 109.852 147.883V145.797C109.93 145.286 110.055 144.823 110.227 144.406C110.398 143.99 110.62 143.63 110.891 143.328C111.167 143.026 111.495 142.794 111.875 142.633C112.26 142.471 112.701 142.391 113.195 142.391C113.711 142.391 114.169 142.492 114.57 142.695C114.977 142.893 115.318 143.182 115.594 143.562C115.87 143.938 116.081 144.391 116.227 144.922C116.372 145.448 116.445 146.039 116.445 146.695ZM115.5 146.859V146.695C115.5 146.201 115.453 145.742 115.359 145.32C115.266 144.898 115.117 144.531 114.914 144.219C114.716 143.901 114.461 143.654 114.148 143.477C113.836 143.299 113.461 143.211 113.023 143.211C112.576 143.211 112.193 143.286 111.875 143.438C111.562 143.583 111.302 143.779 111.094 144.023C110.891 144.263 110.729 144.526 110.609 144.812C110.49 145.099 110.401 145.38 110.344 145.656V148.086C110.432 148.477 110.586 148.844 110.805 149.188C111.023 149.531 111.318 149.81 111.688 150.023C112.057 150.232 112.508 150.336 113.039 150.336C113.466 150.336 113.833 150.247 114.141 150.07C114.453 149.893 114.708 149.648 114.906 149.336C115.109 149.023 115.258 148.656 115.352 148.234C115.451 147.812 115.5 147.354 115.5 146.859ZM119.555 139V151H118.625V139H119.555ZM125.375 151.156C124.823 151.156 124.315 151.055 123.852 150.852C123.393 150.648 122.992 150.362 122.648 149.992C122.31 149.622 122.047 149.185 121.859 148.68C121.677 148.169 121.586 147.612 121.586 147.008V146.672C121.586 146.021 121.682 145.432 121.875 144.906C122.068 144.38 122.333 143.93 122.672 143.555C123.01 143.18 123.396 142.893 123.828 142.695C124.266 142.492 124.724 142.391 125.203 142.391C125.74 142.391 126.216 142.487 126.633 142.68C127.049 142.867 127.398 143.135 127.68 143.484C127.966 143.828 128.182 144.237 128.328 144.711C128.474 145.18 128.547 145.698 128.547 146.266V146.836H122.148V146.039H127.617V145.93C127.607 145.456 127.51 145.013 127.328 144.602C127.151 144.185 126.885 143.846 126.531 143.586C126.177 143.326 125.734 143.195 125.203 143.195C124.807 143.195 124.443 143.279 124.109 143.445C123.781 143.612 123.497 143.852 123.258 144.164C123.023 144.471 122.841 144.839 122.711 145.266C122.586 145.688 122.523 146.156 122.523 146.672V147.008C122.523 147.477 122.591 147.914 122.727 148.32C122.867 148.721 123.065 149.076 123.32 149.383C123.581 149.69 123.888 149.93 124.242 150.102C124.596 150.273 124.987 150.359 125.414 150.359C125.914 150.359 126.357 150.268 126.742 150.086C127.128 149.898 127.474 149.604 127.781 149.203L128.367 149.656C128.185 149.927 127.956 150.177 127.68 150.406C127.409 150.635 127.083 150.818 126.703 150.953C126.323 151.089 125.88 151.156 125.375 151.156ZM135.336 142.547V151H134.406V142.547H135.336ZM134.242 140.102C134.242 139.924 134.297 139.776 134.406 139.656C134.521 139.531 134.677 139.469 134.875 139.469C135.073 139.469 135.229 139.531 135.344 139.656C135.464 139.776 135.523 139.924 135.523 140.102C135.523 140.273 135.464 140.422 135.344 140.547C135.229 140.667 135.073 140.727 134.875 140.727C134.677 140.727 134.521 140.667 134.406 140.547C134.297 140.422 134.242 140.273 134.242 140.102ZM138.82 144.352V151H137.891V142.547H138.781L138.82 144.352ZM138.609 146.25L138.195 146.016C138.227 145.516 138.328 145.047 138.5 144.609C138.672 144.172 138.904 143.786 139.195 143.453C139.492 143.12 139.839 142.859 140.234 142.672C140.635 142.484 141.078 142.391 141.562 142.391C141.984 142.391 142.362 142.448 142.695 142.562C143.029 142.677 143.312 142.859 143.547 143.109C143.781 143.359 143.958 143.68 144.078 144.07C144.203 144.461 144.266 144.938 144.266 145.5V151H143.328V145.492C143.328 144.909 143.247 144.453 143.086 144.125C142.924 143.792 142.695 143.555 142.398 143.414C142.102 143.273 141.75 143.203 141.344 143.203C140.896 143.203 140.503 143.302 140.164 143.5C139.831 143.693 139.549 143.945 139.32 144.258C139.096 144.565 138.924 144.896 138.805 145.25C138.685 145.599 138.62 145.932 138.609 146.25ZM149.805 150.352C150.201 150.352 150.57 150.279 150.914 150.133C151.263 149.982 151.549 149.76 151.773 149.469C152.003 149.172 152.133 148.81 152.164 148.383H153.055C153.029 148.919 152.865 149.398 152.562 149.82C152.266 150.237 151.875 150.565 151.391 150.805C150.911 151.039 150.383 151.156 149.805 151.156C149.216 151.156 148.695 151.049 148.242 150.836C147.794 150.622 147.419 150.326 147.117 149.945C146.815 149.56 146.586 149.112 146.43 148.602C146.279 148.086 146.203 147.531 146.203 146.938V146.609C146.203 146.016 146.279 145.464 146.43 144.953C146.586 144.438 146.815 143.99 147.117 143.609C147.419 143.224 147.794 142.924 148.242 142.711C148.69 142.497 149.208 142.391 149.797 142.391C150.401 142.391 150.943 142.513 151.422 142.758C151.906 143.003 152.292 143.349 152.578 143.797C152.87 144.245 153.029 144.776 153.055 145.391H152.164C152.138 144.938 152.018 144.547 151.805 144.219C151.591 143.891 151.31 143.638 150.961 143.461C150.612 143.284 150.224 143.195 149.797 143.195C149.318 143.195 148.909 143.289 148.57 143.477C148.232 143.659 147.956 143.911 147.742 144.234C147.534 144.552 147.38 144.917 147.281 145.328C147.182 145.734 147.133 146.161 147.133 146.609V146.938C147.133 147.391 147.18 147.823 147.273 148.234C147.372 148.641 147.526 149.003 147.734 149.32C147.948 149.638 148.224 149.891 148.562 150.078C148.906 150.26 149.32 150.352 149.805 150.352ZM155.867 143.945V151H154.938V142.547H155.844L155.867 143.945ZM158.859 142.484L158.836 143.344C158.732 143.328 158.63 143.315 158.531 143.305C158.432 143.294 158.326 143.289 158.211 143.289C157.805 143.289 157.448 143.365 157.141 143.516C156.839 143.661 156.583 143.867 156.375 144.133C156.167 144.393 156.008 144.701 155.898 145.055C155.789 145.404 155.727 145.779 155.711 146.18L155.367 146.312C155.367 145.76 155.424 145.247 155.539 144.773C155.654 144.299 155.828 143.885 156.062 143.531C156.302 143.172 156.602 142.893 156.961 142.695C157.326 142.492 157.753 142.391 158.242 142.391C158.362 142.391 158.479 142.401 158.594 142.422C158.714 142.438 158.802 142.458 158.859 142.484ZM163.438 151.156C162.885 151.156 162.378 151.055 161.914 150.852C161.456 150.648 161.055 150.362 160.711 149.992C160.372 149.622 160.109 149.185 159.922 148.68C159.74 148.169 159.648 147.612 159.648 147.008V146.672C159.648 146.021 159.745 145.432 159.938 144.906C160.13 144.38 160.396 143.93 160.734 143.555C161.073 143.18 161.458 142.893 161.891 142.695C162.328 142.492 162.786 142.391 163.266 142.391C163.802 142.391 164.279 142.487 164.695 142.68C165.112 142.867 165.461 143.135 165.742 143.484C166.029 143.828 166.245 144.237 166.391 144.711C166.536 145.18 166.609 145.698 166.609 146.266V146.836H160.211V146.039H165.68V145.93C165.669 145.456 165.573 145.013 165.391 144.602C165.214 144.185 164.948 143.846 164.594 143.586C164.24 143.326 163.797 143.195 163.266 143.195C162.87 143.195 162.505 143.279 162.172 143.445C161.844 143.612 161.56 143.852 161.32 144.164C161.086 144.471 160.904 144.839 160.773 145.266C160.648 145.688 160.586 146.156 160.586 146.672V147.008C160.586 147.477 160.654 147.914 160.789 148.32C160.93 148.721 161.128 149.076 161.383 149.383C161.643 149.69 161.951 149.93 162.305 150.102C162.659 150.273 163.049 150.359 163.477 150.359C163.977 150.359 164.419 150.268 164.805 150.086C165.19 149.898 165.536 149.604 165.844 149.203L166.43 149.656C166.247 149.927 166.018 150.177 165.742 150.406C165.471 150.635 165.146 150.818 164.766 150.953C164.385 151.089 163.943 151.156 163.438 151.156ZM173.594 149.484V145.125C173.594 144.724 173.51 144.378 173.344 144.086C173.177 143.794 172.932 143.57 172.609 143.414C172.286 143.258 171.888 143.18 171.414 143.18C170.977 143.18 170.586 143.258 170.242 143.414C169.904 143.565 169.635 143.771 169.438 144.031C169.245 144.286 169.148 144.57 169.148 144.883L168.211 144.875C168.211 144.557 168.289 144.25 168.445 143.953C168.602 143.656 168.823 143.391 169.109 143.156C169.396 142.922 169.737 142.737 170.133 142.602C170.534 142.461 170.974 142.391 171.453 142.391C172.057 142.391 172.589 142.492 173.047 142.695C173.51 142.898 173.872 143.203 174.133 143.609C174.393 144.016 174.523 144.526 174.523 145.141V149.227C174.523 149.518 174.544 149.82 174.586 150.133C174.633 150.445 174.698 150.703 174.781 150.906V151H173.789C173.727 150.812 173.677 150.578 173.641 150.297C173.609 150.01 173.594 149.74 173.594 149.484ZM173.812 146.078L173.828 146.797H171.992C171.513 146.797 171.083 146.841 170.703 146.93C170.328 147.013 170.01 147.138 169.75 147.305C169.49 147.466 169.289 147.661 169.148 147.891C169.013 148.12 168.945 148.38 168.945 148.672C168.945 148.974 169.021 149.25 169.172 149.5C169.328 149.75 169.547 149.951 169.828 150.102C170.115 150.247 170.453 150.32 170.844 150.32C171.365 150.32 171.823 150.224 172.219 150.031C172.62 149.839 172.951 149.586 173.211 149.273C173.471 148.961 173.646 148.62 173.734 148.25L174.141 148.789C174.073 149.049 173.948 149.318 173.766 149.594C173.589 149.865 173.357 150.12 173.07 150.359C172.784 150.594 172.445 150.786 172.055 150.938C171.669 151.083 171.232 151.156 170.742 151.156C170.19 151.156 169.708 151.052 169.297 150.844C168.891 150.635 168.573 150.352 168.344 149.992C168.12 149.628 168.008 149.216 168.008 148.758C168.008 148.341 168.096 147.969 168.273 147.641C168.451 147.307 168.706 147.026 169.039 146.797C169.378 146.562 169.784 146.385 170.258 146.266C170.737 146.141 171.273 146.078 171.867 146.078H173.812ZM182.094 148.844C182.094 148.615 182.036 148.388 181.922 148.164C181.807 147.94 181.586 147.734 181.258 147.547C180.935 147.359 180.458 147.201 179.828 147.07C179.359 146.966 178.94 146.849 178.57 146.719C178.206 146.589 177.898 146.432 177.648 146.25C177.398 146.068 177.208 145.849 177.078 145.594C176.948 145.339 176.883 145.036 176.883 144.688C176.883 144.375 176.951 144.081 177.086 143.805C177.227 143.523 177.424 143.279 177.68 143.07C177.94 142.857 178.253 142.69 178.617 142.57C178.987 142.451 179.401 142.391 179.859 142.391C180.51 142.391 181.068 142.503 181.531 142.727C182 142.945 182.357 143.245 182.602 143.625C182.852 144.005 182.977 144.435 182.977 144.914H182.047C182.047 144.622 181.961 144.346 181.789 144.086C181.622 143.826 181.375 143.612 181.047 143.445C180.724 143.279 180.328 143.195 179.859 143.195C179.375 143.195 178.982 143.268 178.68 143.414C178.378 143.56 178.156 143.745 178.016 143.969C177.88 144.193 177.812 144.424 177.812 144.664C177.812 144.852 177.841 145.023 177.898 145.18C177.961 145.331 178.07 145.471 178.227 145.602C178.388 145.732 178.617 145.854 178.914 145.969C179.211 146.083 179.596 146.195 180.07 146.305C180.753 146.456 181.31 146.641 181.742 146.859C182.18 147.073 182.503 147.339 182.711 147.656C182.919 147.969 183.023 148.349 183.023 148.797C183.023 149.146 182.951 149.466 182.805 149.758C182.659 150.044 182.448 150.292 182.172 150.5C181.901 150.708 181.573 150.87 181.188 150.984C180.807 151.099 180.38 151.156 179.906 151.156C179.193 151.156 178.589 151.039 178.094 150.805C177.604 150.565 177.232 150.253 176.977 149.867C176.727 149.477 176.602 149.062 176.602 148.625H177.531C177.562 149.062 177.701 149.409 177.945 149.664C178.19 149.914 178.49 150.091 178.844 150.195C179.203 150.299 179.557 150.352 179.906 150.352C180.385 150.352 180.786 150.281 181.109 150.141C181.432 150 181.677 149.815 181.844 149.586C182.01 149.357 182.094 149.109 182.094 148.844ZM188.406 151.156C187.854 151.156 187.346 151.055 186.883 150.852C186.424 150.648 186.023 150.362 185.68 149.992C185.341 149.622 185.078 149.185 184.891 148.68C184.708 148.169 184.617 147.612 184.617 147.008V146.672C184.617 146.021 184.714 145.432 184.906 144.906C185.099 144.38 185.365 143.93 185.703 143.555C186.042 143.18 186.427 142.893 186.859 142.695C187.297 142.492 187.755 142.391 188.234 142.391C188.771 142.391 189.247 142.487 189.664 142.68C190.081 142.867 190.43 143.135 190.711 143.484C190.997 143.828 191.214 144.237 191.359 144.711C191.505 145.18 191.578 145.698 191.578 146.266V146.836H185.18V146.039H190.648V145.93C190.638 145.456 190.542 145.013 190.359 144.602C190.182 144.185 189.917 143.846 189.562 143.586C189.208 143.326 188.766 143.195 188.234 143.195C187.839 143.195 187.474 143.279 187.141 143.445C186.812 143.612 186.529 143.852 186.289 144.164C186.055 144.471 185.872 144.839 185.742 145.266C185.617 145.688 185.555 146.156 185.555 146.672V147.008C185.555 147.477 185.622 147.914 185.758 148.32C185.898 148.721 186.096 149.076 186.352 149.383C186.612 149.69 186.919 149.93 187.273 150.102C187.628 150.273 188.018 150.359 188.445 150.359C188.945 150.359 189.388 150.268 189.773 150.086C190.159 149.898 190.505 149.604 190.812 149.203L191.398 149.656C191.216 149.927 190.987 150.177 190.711 150.406C190.44 150.635 190.115 150.818 189.734 150.953C189.354 151.089 188.911 151.156 188.406 151.156ZM198.367 142.547V151H197.438V142.547H198.367ZM197.273 140.102C197.273 139.924 197.328 139.776 197.438 139.656C197.552 139.531 197.708 139.469 197.906 139.469C198.104 139.469 198.26 139.531 198.375 139.656C198.495 139.776 198.555 139.924 198.555 140.102C198.555 140.273 198.495 140.422 198.375 140.547C198.26 140.667 198.104 140.727 197.906 140.727C197.708 140.727 197.552 140.667 197.438 140.547C197.328 140.422 197.273 140.273 197.273 140.102ZM201.852 144.352V151H200.922V142.547H201.812L201.852 144.352ZM201.641 146.25L201.227 146.016C201.258 145.516 201.359 145.047 201.531 144.609C201.703 144.172 201.935 143.786 202.227 143.453C202.523 143.12 202.87 142.859 203.266 142.672C203.667 142.484 204.109 142.391 204.594 142.391C205.016 142.391 205.393 142.448 205.727 142.562C206.06 142.677 206.344 142.859 206.578 143.109C206.812 143.359 206.99 143.68 207.109 144.07C207.234 144.461 207.297 144.938 207.297 145.5V151H206.359V145.492C206.359 144.909 206.279 144.453 206.117 144.125C205.956 143.792 205.727 143.555 205.43 143.414C205.133 143.273 204.781 143.203 204.375 143.203C203.927 143.203 203.534 143.302 203.195 143.5C202.862 143.693 202.581 143.945 202.352 144.258C202.128 144.565 201.956 144.896 201.836 145.25C201.716 145.599 201.651 145.932 201.641 146.25ZM90.4844 169.102L93.1953 161.547H94.1562L90.9922 170H90.3125L90.4844 169.102ZM88.0312 161.547L90.7734 169.125L90.9219 170H90.2344L87.0625 161.547H88.0312ZM96.7344 161.547V170H95.8047V161.547H96.7344ZM95.6406 159.102C95.6406 158.924 95.6953 158.776 95.8047 158.656C95.9193 158.531 96.0755 158.469 96.2734 158.469C96.4714 158.469 96.6276 158.531 96.7422 158.656C96.862 158.776 96.9219 158.924 96.9219 159.102C96.9219 159.273 96.862 159.422 96.7422 159.547C96.6276 159.667 96.4714 159.727 96.2734 159.727C96.0755 159.727 95.9193 159.667 95.8047 159.547C95.6953 159.422 95.6406 159.273 95.6406 159.102ZM104.352 167.844C104.352 167.615 104.294 167.388 104.18 167.164C104.065 166.94 103.844 166.734 103.516 166.547C103.193 166.359 102.716 166.201 102.086 166.07C101.617 165.966 101.198 165.849 100.828 165.719C100.464 165.589 100.156 165.432 99.9062 165.25C99.6562 165.068 99.4661 164.849 99.3359 164.594C99.2057 164.339 99.1406 164.036 99.1406 163.688C99.1406 163.375 99.2083 163.081 99.3438 162.805C99.4844 162.523 99.6823 162.279 99.9375 162.07C100.198 161.857 100.51 161.69 100.875 161.57C101.245 161.451 101.659 161.391 102.117 161.391C102.768 161.391 103.326 161.503 103.789 161.727C104.258 161.945 104.615 162.245 104.859 162.625C105.109 163.005 105.234 163.435 105.234 163.914H104.305C104.305 163.622 104.219 163.346 104.047 163.086C103.88 162.826 103.633 162.612 103.305 162.445C102.982 162.279 102.586 162.195 102.117 162.195C101.633 162.195 101.24 162.268 100.938 162.414C100.635 162.56 100.414 162.745 100.273 162.969C100.138 163.193 100.07 163.424 100.07 163.664C100.07 163.852 100.099 164.023 100.156 164.18C100.219 164.331 100.328 164.471 100.484 164.602C100.646 164.732 100.875 164.854 101.172 164.969C101.469 165.083 101.854 165.195 102.328 165.305C103.01 165.456 103.568 165.641 104 165.859C104.438 166.073 104.76 166.339 104.969 166.656C105.177 166.969 105.281 167.349 105.281 167.797C105.281 168.146 105.208 168.466 105.062 168.758C104.917 169.044 104.706 169.292 104.43 169.5C104.159 169.708 103.831 169.87 103.445 169.984C103.065 170.099 102.638 170.156 102.164 170.156C101.451 170.156 100.846 170.039 100.352 169.805C99.862 169.565 99.4896 169.253 99.2344 168.867C98.9844 168.477 98.8594 168.062 98.8594 167.625H99.7891C99.8203 168.062 99.9583 168.409 100.203 168.664C100.448 168.914 100.747 169.091 101.102 169.195C101.461 169.299 101.815 169.352 102.164 169.352C102.643 169.352 103.044 169.281 103.367 169.141C103.69 169 103.935 168.815 104.102 168.586C104.268 168.357 104.352 168.109 104.352 167.844ZM108.438 161.547V170H107.508V161.547H108.438ZM107.344 159.102C107.344 158.924 107.398 158.776 107.508 158.656C107.622 158.531 107.779 158.469 107.977 158.469C108.174 158.469 108.331 158.531 108.445 158.656C108.565 158.776 108.625 158.924 108.625 159.102C108.625 159.273 108.565 159.422 108.445 159.547C108.331 159.667 108.174 159.727 107.977 159.727C107.779 159.727 107.622 159.667 107.508 159.547C107.398 159.422 107.344 159.273 107.344 159.102ZM114.188 161.547V162.312H109.953V161.547H114.188ZM111.508 159.375H112.438V167.945C112.438 168.336 112.49 168.63 112.594 168.828C112.698 169.026 112.833 169.159 113 169.227C113.167 169.294 113.346 169.328 113.539 169.328C113.68 169.328 113.815 169.32 113.945 169.305C114.076 169.284 114.193 169.263 114.297 169.242L114.336 170.031C114.221 170.068 114.073 170.096 113.891 170.117C113.708 170.143 113.526 170.156 113.344 170.156C112.984 170.156 112.667 170.091 112.391 169.961C112.115 169.826 111.898 169.596 111.742 169.273C111.586 168.945 111.508 168.5 111.508 167.938V159.375ZM115.477 165.906V165.648C115.477 165.034 115.565 164.466 115.742 163.945C115.919 163.424 116.172 162.974 116.5 162.594C116.833 162.214 117.232 161.919 117.695 161.711C118.159 161.497 118.674 161.391 119.242 161.391C119.815 161.391 120.333 161.497 120.797 161.711C121.26 161.919 121.659 162.214 121.992 162.594C122.326 162.974 122.581 163.424 122.758 163.945C122.935 164.466 123.023 165.034 123.023 165.648V165.906C123.023 166.521 122.935 167.089 122.758 167.609C122.581 168.125 122.326 168.573 121.992 168.953C121.664 169.333 121.268 169.63 120.805 169.844C120.341 170.052 119.826 170.156 119.258 170.156C118.685 170.156 118.167 170.052 117.703 169.844C117.24 169.63 116.841 169.333 116.508 168.953C116.174 168.573 115.919 168.125 115.742 167.609C115.565 167.089 115.477 166.521 115.477 165.906ZM116.406 165.648V165.906C116.406 166.37 116.469 166.81 116.594 167.227C116.719 167.638 116.901 168.005 117.141 168.328C117.38 168.646 117.677 168.896 118.031 169.078C118.385 169.26 118.794 169.352 119.258 169.352C119.716 169.352 120.12 169.26 120.469 169.078C120.823 168.896 121.12 168.646 121.359 168.328C121.599 168.005 121.779 167.638 121.898 167.227C122.023 166.81 122.086 166.37 122.086 165.906V165.648C122.086 165.19 122.023 164.755 121.898 164.344C121.779 163.932 121.596 163.565 121.352 163.242C121.112 162.919 120.815 162.664 120.461 162.477C120.107 162.289 119.701 162.195 119.242 162.195C118.784 162.195 118.378 162.289 118.023 162.477C117.674 162.664 117.378 162.919 117.133 163.242C116.893 163.565 116.711 163.932 116.586 164.344C116.466 164.755 116.406 165.19 116.406 165.648ZM125.891 162.945V170H124.961V161.547H125.867L125.891 162.945ZM128.883 161.484L128.859 162.344C128.755 162.328 128.654 162.315 128.555 162.305C128.456 162.294 128.349 162.289 128.234 162.289C127.828 162.289 127.471 162.365 127.164 162.516C126.862 162.661 126.607 162.867 126.398 163.133C126.19 163.393 126.031 163.701 125.922 164.055C125.812 164.404 125.75 164.779 125.734 165.18L125.391 165.312C125.391 164.76 125.448 164.247 125.562 163.773C125.677 163.299 125.852 162.885 126.086 162.531C126.326 162.172 126.625 161.893 126.984 161.695C127.349 161.492 127.776 161.391 128.266 161.391C128.385 161.391 128.503 161.401 128.617 161.422C128.737 161.438 128.826 161.458 128.883 161.484ZM135.414 167.844C135.414 167.615 135.357 167.388 135.242 167.164C135.128 166.94 134.906 166.734 134.578 166.547C134.255 166.359 133.779 166.201 133.148 166.07C132.68 165.966 132.26 165.849 131.891 165.719C131.526 165.589 131.219 165.432 130.969 165.25C130.719 165.068 130.529 164.849 130.398 164.594C130.268 164.339 130.203 164.036 130.203 163.688C130.203 163.375 130.271 163.081 130.406 162.805C130.547 162.523 130.745 162.279 131 162.07C131.26 161.857 131.573 161.69 131.938 161.57C132.307 161.451 132.721 161.391 133.18 161.391C133.831 161.391 134.388 161.503 134.852 161.727C135.32 161.945 135.677 162.245 135.922 162.625C136.172 163.005 136.297 163.435 136.297 163.914H135.367C135.367 163.622 135.281 163.346 135.109 163.086C134.943 162.826 134.695 162.612 134.367 162.445C134.044 162.279 133.648 162.195 133.18 162.195C132.695 162.195 132.302 162.268 132 162.414C131.698 162.56 131.477 162.745 131.336 162.969C131.201 163.193 131.133 163.424 131.133 163.664C131.133 163.852 131.161 164.023 131.219 164.18C131.281 164.331 131.391 164.471 131.547 164.602C131.708 164.732 131.938 164.854 132.234 164.969C132.531 165.083 132.917 165.195 133.391 165.305C134.073 165.456 134.63 165.641 135.062 165.859C135.5 166.073 135.823 166.339 136.031 166.656C136.24 166.969 136.344 167.349 136.344 167.797C136.344 168.146 136.271 168.466 136.125 168.758C135.979 169.044 135.768 169.292 135.492 169.5C135.221 169.708 134.893 169.87 134.508 169.984C134.128 170.099 133.701 170.156 133.227 170.156C132.513 170.156 131.909 170.039 131.414 169.805C130.924 169.565 130.552 169.253 130.297 168.867C130.047 168.477 129.922 168.062 129.922 167.625H130.852C130.883 168.062 131.021 168.409 131.266 168.664C131.51 168.914 131.81 169.091 132.164 169.195C132.523 169.299 132.878 169.352 133.227 169.352C133.706 169.352 134.107 169.281 134.43 169.141C134.753 169 134.997 168.815 135.164 168.586C135.331 168.357 135.414 168.109 135.414 167.844Z" fill="#EFEFEF"/>
<path fill-rule="evenodd" clip-rule="evenodd" d="M112.486 1.01126C144.242 1.01126 169.986 26.7545 169.986 58.5108C169.986 90.2673 144.242 116.011 112.486 116.011C80.7296 116.011 54.9861 90.2673 54.9861 58.5108C54.9861 26.7545 80.7296 1.01126 112.486 1.01126Z" fill="#F9BF3B"/>
<path d="M112.446 57.3541C117.707 57.3541 121.988 53.073 121.988 47.8108C121.988 42.5506 117.708 38.2715 112.446 38.2715C107.186 38.2715 102.907 42.5506 102.907 47.8108C102.907 53.073 107.186 57.3541 112.446 57.3541Z" fill="#F9EFE3"/>
<path d="M119.404 55.7881C117.527 57.4443 115.067 58.4584 112.373 58.4584C109.704 58.4584 107.193 57.4628 105.322 55.8336C105.306 55.8441 105.147 55.8593 105.129 55.8672C102.046 57.3257 100.052 59.845 100.052 62.9624V80.121H124.349V62.9604C124.349 59.8549 122.542 57.2459 119.404 55.7881Z" fill="#B0E0D4"/>
<path d="M94.5294 61.8325V70.1817H84.5898V60.3714C84.5898 58.5635 85.6745 57.2283 87.4138 56.4035C88.5505 57.3464 90.1079 57.914 91.6962 57.914C93.1936 57.914 94.6204 57.4057 95.7261 56.5578L96.5233 57.1189C94.8169 58.8918 94.5294 61.7 94.5294 61.8325ZM91.7971 56.8097C88.7879 56.8097 86.3397 54.3602 86.3397 51.3496C86.3397 48.3391 88.7879 45.8896 91.7971 45.8896C94.809 45.8896 97.2597 48.3391 97.2597 51.3496C97.2597 54.3602 94.8096 56.8097 91.7971 56.8097Z" fill="#E0F1F8"/>
<path d="M127.949 57.273L128.822 56.7126C129.929 57.5585 131.333 58.0675 132.829 58.0675C134.418 58.0675 135.934 57.4998 137.071 56.557C138.811 57.3825 139.809 58.717 139.809 60.5249V70.1816H129.871V61.9867C129.871 61.8541 129.656 59.0453 127.949 57.273ZM127.309 51.5025C127.309 48.4919 129.76 46.0425 132.772 46.0425C135.781 46.0425 138.229 48.4919 138.229 51.5025C138.229 54.513 135.781 56.9631 132.772 56.9631C129.76 56.9631 127.309 54.513 127.309 51.5025Z" fill="#E0F1F8"/>
<path d="M112.233 59.6553C105.756 59.6553 100.485 54.3839 100.485 47.9039C100.485 41.4259 105.756 36.1558 112.233 36.1558C118.712 36.1558 123.984 41.4259 123.984 47.9039C123.984 54.3839 118.712 59.6553 112.233 59.6553ZM112.233 39.4689C107.582 39.4689 103.798 43.2529 103.798 47.9039C103.798 52.5575 107.582 56.3421 112.233 56.3421C116.886 56.3421 120.671 52.5575 120.671 47.9039C120.67 43.2529 116.885 39.4689 112.233 39.4689Z" fill="#454B53"/>
<path d="M124.752 81.3746C123.837 81.3746 123.095 80.6329 123.095 79.7177V63.0535C123.095 60.3397 121.55 58.1382 118.745 56.8564C117.913 56.476 117.548 55.4935 117.928 54.6608C118.309 53.8281 119.29 53.4621 120.123 53.8432C124.118 55.6702 126.408 59.027 126.408 63.0542V79.7177C126.409 80.6329 125.667 81.3746 124.752 81.3746Z" fill="#454B53"/>
<path d="M99.8793 81.3759C98.9642 81.3759 98.2224 80.6342 98.2224 79.719V63.0542C98.2224 59.0935 100.425 55.7797 104.267 53.9625C105.095 53.5702 106.081 53.9243 106.473 54.7511C106.864 55.5779 106.511 56.5656 105.684 56.9572C102.97 58.241 101.536 60.3495 101.536 63.0542V79.7183C101.536 80.6342 100.795 81.3759 99.8793 81.3759Z" fill="#454B53"/>
<path d="M91.7912 59.0646C87.5648 59.0646 84.125 55.6242 84.125 51.3958C84.125 47.1668 87.5648 43.7271 91.7912 43.7271C96.0215 43.7271 99.4632 47.1668 99.4632 51.3958C99.4626 55.6242 96.0215 59.0646 91.7912 59.0646ZM91.7912 47.0402C89.3912 47.0402 87.4382 48.9939 87.4382 51.3952C87.4382 53.7965 89.3912 55.7501 91.7912 55.7501C94.1951 55.7501 96.1494 53.7965 96.1494 51.3952C96.1494 48.9939 94.1945 47.0402 91.7912 47.0402Z" fill="#454B53"/>
<path d="M84.4343 71.7475C83.5191 71.7475 82.7773 71.0058 82.7773 70.0906V60.4174C82.7773 57.759 84.158 55.6405 86.6648 54.4524C87.491 54.062 88.4793 54.4128 88.871 55.2403C89.2633 56.0671 88.9112 57.0548 88.0837 57.4464C86.7426 58.082 86.0912 59.0539 86.0912 60.4174V70.0906C86.0912 71.0058 85.3494 71.7475 84.4343 71.7475Z" fill="#454B53"/>
<path d="M132.739 59.0646C128.511 59.0646 125.07 55.6242 125.07 51.3958C125.07 47.1668 128.511 43.7271 132.739 43.7271C136.967 43.7271 140.407 47.1668 140.407 51.3958C140.407 55.6242 136.967 59.0646 132.739 59.0646ZM132.739 47.0402C130.337 47.0402 128.384 48.9939 128.384 51.3952C128.384 53.7965 130.338 55.7501 132.739 55.7501C135.14 55.7501 137.093 53.7965 137.093 51.3952C137.093 48.9939 135.14 47.0402 132.739 47.0402Z" fill="#454B53"/>
<path d="M140.193 71.7477C139.279 71.7477 138.537 71.0059 138.537 70.0907V60.4176C138.537 59.027 137.86 58.0406 136.465 57.4024C135.633 57.022 135.267 56.0382 135.649 55.2068C136.03 54.374 137.013 54.0101 137.844 54.3905C140.427 55.5734 141.85 57.7136 141.85 60.4182V70.0914C141.85 71.0059 141.109 71.7477 140.193 71.7477Z" fill="#454B53"/>
</svg>
